<svg width="24" height="24" viewBox="0 0 24 24" fill="none" xmlns="http://www.w3.org/2000/svg">
<path d="M17.3657 5.63298C16.8389 5.09814 16.2468 4.65542 15.6607 4.22259C15.2305 3.90466 14.765 3.93834 14.3267 4.25627C14.0925 4.42662 12.5695 5.90337 12.1121 6.34907C12.0508 6.40949 11.9533 6.40751 11.8949 6.34511C11.4898 5.91526 10.2021 4.5534 9.58884 4.18793C9.22996 3.97399 8.857 3.91853 8.51018 4.1493C7.99849 4.491 7.47474 4.83073 7.01935 5.27246C5.19678 7.04238 2 10.2484 2 11.5004C2 14.1577 7.04147 19 12.1061 19C17.1706 19 22 14.1825 22 11.4736C22 10.3069 18.8635 7.15034 17.3647 5.63199L17.3657 5.63298ZM12.1473 14.3003C6.41417 14.3003 5.14451 13.1217 5.14451 12.1848C5.14451 11.2478 6.41317 10.0692 12.1473 10.0692C17.8814 10.0692 18.8334 11.2706 18.8334 12.1848C18.8334 13.0989 17.8804 14.3003 12.1473 14.3003Z" fill="#FF3453"/>
</svg>
