<svg width="354" height="404" viewBox="0 0 354 404" fill="none" xmlns="http://www.w3.org/2000/svg">
<g clip-path="url(#clip0_9_783)">
<path d="M0 38C0 24.1929 11.1929 13 25 13H329C342.807 13 354 24.1929 354 38V404H0V38Z" fill="#F5F5F5"/>
<g filter="url(#filter0_d_9_783)">
<rect x="19" y="30" width="317" height="126" rx="4" fill="#F5F5F5" shape-rendering="crispEdges"/>
<rect x="19.5" y="30.5" width="316" height="125" rx="3.5" stroke="#6F6F6F" stroke-opacity="0.125" shape-rendering="crispEdges"/>
<g clip-path="url(#clip1_9_783)">
<rect x="40" y="51" width="49" height="48" rx="16.98" fill="#FF3453" fill-opacity="0.17"/>
<path d="M63.7031 69.7969C62.5781 69.4688 61.6406 68.625 61.5 67.5469C61.3125 66.0469 62.4844 64.7812 64.0312 64.5938V63.75C64.0312 63.375 64.3594 63 64.8281 63H65.625C66.0938 63 66.4688 63.375 66.4688 63.75V64.5938C67.0312 64.6875 67.5938 64.875 68.0625 65.1562C68.2031 65.25 68.3438 65.3906 68.3438 65.625C68.3438 65.7188 68.2969 65.8125 68.25 65.8594C68.2031 65.9062 68.2031 65.9531 68.1562 66L67.2656 66.8438C67.0781 66.9844 66.7969 67.0312 66.5625 66.9375C66.375 66.8438 66.1875 66.7969 66 66.7969H64.3594C64.125 66.7969 63.9375 66.9844 63.9375 67.2188C63.9375 67.4062 64.0312 67.5469 64.2188 67.5938L66.75 68.25C67.9219 68.5781 68.8125 69.4219 68.9531 70.5C69.1406 72 67.9688 73.2656 66.4688 73.4531V74.25C66.4688 74.6719 66.0938 75 65.625 75H64.8281C64.3594 75 63.9844 74.6719 63.9844 74.25V73.4531C63.4219 73.4062 62.8594 73.1719 62.3906 72.8906C62.25 72.7969 62.1094 72.6562 62.1094 72.4219C62.1094 72.3281 62.1562 72.2344 62.2031 72.1875C62.25 72.1406 62.25 72.0938 62.2969 72.0469L63.1875 71.2031C63.375 71.0625 63.6562 71.0156 63.9375 71.1094C64.0781 71.2031 64.2656 71.25 64.4531 71.25H66.0938C66.3281 71.25 66.5156 71.0625 66.5156 70.8281C66.5156 70.6406 66.4219 70.5 66.2344 70.4531L63.7031 69.7969ZM77.4844 78.4219C77.7656 78.6562 78 79.0781 78 79.5C78 80.0156 77.7656 80.4375 77.4375 80.6719L70.3125 86.3438C69.7969 86.7656 69.1406 87 68.4375 87H51.75C51.3281 87 51 86.6719 51 86.25V81.75C51 81.375 51.3281 81 51.75 81H54.3281L56.4844 79.2656C57.4688 78.4688 58.6406 78.0469 60 78H67.5C68.2969 78 68.9531 78.7031 69 79.5C69 79.5 69 79.5 69 79.5469C69 79.5938 68.9531 79.6875 68.9531 79.7812C68.8594 80.5312 68.1562 81 67.4062 81H63.75C63.3281 81 63 81.375 63 81.75C63 82.1719 63.3281 82.5 63.75 82.5H69.2812C69.9844 82.5 70.6406 82.2656 71.1562 81.8438L75.4688 78.4219C76.0781 77.9531 76.9219 77.9062 77.4844 78.4219Z" fill="#FF3453"/>
<path d="M111.981 84.5C111.821 84.5 111.709 84.428 111.645 84.284L108.813 77.9C108.781 77.836 108.733 77.804 108.669 77.804H107.085C107.005 77.804 106.965 77.844 106.965 77.924V84.212C106.965 84.292 106.933 84.364 106.869 84.428C106.821 84.476 106.757 84.5 106.677 84.5H103.269C103.189 84.5 103.117 84.476 103.053 84.428C103.005 84.364 102.981 84.292 102.981 84.212V67.988C102.981 67.908 103.005 67.844 103.053 67.796C103.117 67.732 103.189 67.7 103.269 67.7H110.397C111.453 67.7 112.381 67.916 113.181 68.348C113.981 68.78 114.597 69.396 115.029 70.196C115.477 70.98 115.701 71.884 115.701 72.908C115.701 73.98 115.437 74.908 114.909 75.692C114.381 76.476 113.645 77.044 112.701 77.396C112.621 77.428 112.597 77.484 112.629 77.564L115.797 84.164C115.829 84.228 115.845 84.276 115.845 84.308C115.845 84.436 115.757 84.5 115.581 84.5H111.981ZM107.085 71.108C107.005 71.108 106.965 71.148 106.965 71.228V74.636C106.965 74.716 107.005 74.756 107.085 74.756H109.749C110.341 74.756 110.821 74.596 111.189 74.276C111.557 73.94 111.741 73.5 111.741 72.956C111.741 72.396 111.557 71.948 111.189 71.612C110.821 71.276 110.341 71.108 109.749 71.108H107.085ZM129.603 79.652C129.603 80.948 129.211 82.028 128.427 82.892C127.643 83.74 126.571 84.292 125.211 84.548C125.131 84.58 125.091 84.628 125.091 84.692L125.139 86.204C125.139 86.284 125.107 86.348 125.043 86.396C124.995 86.46 124.931 86.492 124.851 86.492H121.923C121.843 86.492 121.771 86.46 121.707 86.396C121.659 86.348 121.635 86.284 121.635 86.204L121.683 84.644C121.683 84.58 121.643 84.532 121.563 84.5C120.219 84.196 119.163 83.604 118.395 82.724C117.643 81.844 117.267 80.764 117.267 79.484V79.028C117.267 78.948 117.291 78.884 117.339 78.836C117.403 78.772 117.475 78.74 117.555 78.74H120.723C120.803 78.74 120.867 78.772 120.915 78.836C120.979 78.884 121.011 78.948 121.011 79.028V79.316C121.011 79.844 121.267 80.308 121.779 80.708C122.291 81.092 122.971 81.284 123.819 81.284C124.491 81.284 124.987 81.132 125.307 80.828C125.627 80.524 125.787 80.172 125.787 79.772C125.787 79.324 125.595 78.988 125.211 78.764C124.843 78.524 124.179 78.236 123.219 77.9C122.995 77.836 122.827 77.78 122.715 77.732C121.723 77.396 120.859 77.036 120.123 76.652C119.387 76.252 118.755 75.708 118.227 75.02C117.715 74.316 117.459 73.452 117.459 72.428C117.459 71.212 117.827 70.188 118.563 69.356C119.315 68.524 120.315 67.972 121.563 67.7C121.627 67.684 121.659 67.636 121.659 67.556L121.635 65.78C121.635 65.7 121.659 65.636 121.707 65.588C121.771 65.524 121.843 65.492 121.923 65.492H124.827C124.907 65.492 124.971 65.524 125.019 65.588C125.083 65.636 125.115 65.7 125.115 65.78L125.067 67.58C125.067 67.66 125.099 67.708 125.163 67.724C126.475 68.044 127.523 68.668 128.307 69.596C129.107 70.508 129.507 71.604 129.507 72.884V73.22C129.507 73.3 129.475 73.372 129.411 73.436C129.363 73.484 129.299 73.508 129.219 73.508H126.027C125.947 73.508 125.875 73.484 125.811 73.436C125.763 73.372 125.739 73.3 125.739 73.22V73.052C125.739 72.492 125.499 71.996 125.019 71.564C124.555 71.132 123.923 70.916 123.123 70.916C122.531 70.916 122.059 71.044 121.707 71.3C121.371 71.556 121.203 71.916 121.203 72.38C121.203 72.732 121.307 73.028 121.515 73.268C121.739 73.492 122.075 73.7 122.523 73.892C122.971 74.084 123.667 74.348 124.611 74.684C125.683 75.068 126.515 75.404 127.107 75.692C127.715 75.98 128.283 76.452 128.811 77.108C129.339 77.748 129.603 78.596 129.603 79.652ZM133.735 67.772C133.863 67.724 133.983 67.7 134.095 67.7H137.599C137.679 67.7 137.743 67.732 137.791 67.796C137.855 67.844 137.887 67.908 137.887 67.988V84.212C137.887 84.292 137.855 84.364 137.791 84.428C137.743 84.476 137.679 84.5 137.599 84.5H134.191C134.111 84.5 134.039 84.476 133.975 84.428C133.927 84.364 133.903 84.292 133.903 84.212V71.516C133.903 71.484 133.887 71.452 133.855 71.42C133.823 71.388 133.791 71.38 133.759 71.396L131.407 71.948L131.311 71.972C131.167 71.972 131.095 71.884 131.095 71.708L131.047 69.188C131.047 69.028 131.119 68.916 131.263 68.852L133.735 67.772ZM151.002 76.748C151.274 77.516 151.41 78.284 151.41 79.052C151.41 79.852 151.266 80.62 150.978 81.356C150.562 82.348 149.866 83.148 148.89 83.756C147.93 84.348 146.818 84.644 145.554 84.644C144.29 84.644 143.178 84.356 142.218 83.78C141.258 83.188 140.562 82.388 140.13 81.38C139.954 80.932 139.826 80.452 139.746 79.94V79.892C139.746 79.716 139.842 79.628 140.034 79.628H143.538C143.682 79.628 143.794 79.708 143.874 79.868C143.89 79.964 143.946 80.092 144.042 80.252C144.346 80.908 144.834 81.236 145.506 81.236C145.842 81.236 146.146 81.156 146.418 80.996C146.69 80.82 146.906 80.572 147.066 80.252C147.242 79.932 147.33 79.532 147.33 79.052C147.33 78.604 147.25 78.22 147.09 77.9C146.978 77.612 146.786 77.388 146.514 77.228C146.258 77.052 145.962 76.964 145.626 76.964C145.258 76.964 144.914 77.052 144.594 77.228C144.274 77.404 144.058 77.628 143.946 77.9C143.898 78.06 143.794 78.14 143.634 78.14H140.058C139.978 78.14 139.906 78.116 139.842 78.068C139.794 78.004 139.77 77.932 139.77 77.852V67.988C139.77 67.908 139.794 67.844 139.842 67.796C139.906 67.732 139.978 67.7 140.058 67.7H150.57C150.65 67.7 150.714 67.732 150.762 67.796C150.826 67.844 150.858 67.908 150.858 67.988V70.82C150.858 70.9 150.826 70.972 150.762 71.036C150.714 71.084 150.65 71.108 150.57 71.108H143.874C143.794 71.108 143.754 71.148 143.754 71.228V74.036C143.754 74.084 143.77 74.116 143.802 74.132C143.834 74.148 143.866 74.14 143.898 74.108C144.554 73.724 145.298 73.532 146.13 73.532C147.266 73.532 148.266 73.82 149.13 74.396C149.994 74.972 150.618 75.756 151.002 76.748ZM158.343 80.948C158.311 80.98 158.303 81.012 158.319 81.044C158.335 81.076 158.367 81.092 158.415 81.092H164.535C164.615 81.092 164.679 81.124 164.727 81.188C164.791 81.236 164.823 81.3 164.823 81.38V84.212C164.823 84.292 164.791 84.364 164.727 84.428C164.679 84.476 164.615 84.5 164.535 84.5H153.279C153.199 84.5 153.127 84.476 153.063 84.428C153.015 84.364 152.991 84.292 152.991 84.212V81.548C152.991 81.404 153.039 81.284 153.135 81.188C154.095 80.292 155.367 79.004 156.951 77.324L158.391 75.812C159.847 74.308 160.575 73.212 160.575 72.524C160.575 72.06 160.399 71.676 160.047 71.372C159.711 71.068 159.271 70.916 158.727 70.916C158.183 70.916 157.743 71.068 157.407 71.372C157.071 71.676 156.903 72.076 156.903 72.572V73.148C156.903 73.228 156.871 73.3 156.807 73.364C156.759 73.412 156.695 73.436 156.615 73.436H153.159C153.079 73.436 153.007 73.412 152.943 73.364C152.895 73.3 152.871 73.228 152.871 73.148V71.948C152.935 71.052 153.231 70.268 153.759 69.596C154.287 68.924 154.983 68.412 155.847 68.06C156.711 67.692 157.671 67.508 158.727 67.508C159.911 67.508 160.943 67.732 161.823 68.18C162.719 68.612 163.399 69.204 163.863 69.956C164.343 70.708 164.583 71.54 164.583 72.452C164.583 73.108 164.423 73.772 164.103 74.444C163.783 75.116 163.303 75.828 162.663 76.58C162.215 77.124 161.711 77.676 161.151 78.236C160.591 78.796 159.815 79.548 158.823 80.492L158.343 80.948ZM168.744 84.644C168.136 84.644 167.632 84.452 167.232 84.068C166.848 83.668 166.656 83.164 166.656 82.556C166.656 81.932 166.848 81.428 167.232 81.044C167.632 80.66 168.136 80.468 168.744 80.468C169.352 80.468 169.848 80.66 170.232 81.044C170.616 81.428 170.808 81.932 170.808 82.556C170.808 83.164 170.608 83.668 170.208 84.068C169.824 84.452 169.336 84.644 168.744 84.644ZM175.43 67.772C175.558 67.724 175.678 67.7 175.79 67.7H179.294C179.374 67.7 179.438 67.732 179.486 67.796C179.55 67.844 179.582 67.908 179.582 67.988V84.212C179.582 84.292 179.55 84.364 179.486 84.428C179.438 84.476 179.374 84.5 179.294 84.5H175.886C175.806 84.5 175.734 84.476 175.67 84.428C175.622 84.364 175.598 84.292 175.598 84.212V71.516C175.598 71.484 175.582 71.452 175.55 71.42C175.518 71.388 175.486 71.38 175.454 71.396L173.102 71.948L173.006 71.972C172.862 71.972 172.79 71.884 172.79 71.708L172.742 69.188C172.742 69.028 172.814 68.916 172.958 68.852L175.43 67.772ZM194.282 76.772C194.362 76.772 194.426 76.804 194.474 76.868C194.538 76.916 194.57 76.98 194.57 77.06V80.012C194.57 80.092 194.538 80.164 194.474 80.228C194.426 80.276 194.362 80.3 194.282 80.3H193.25C193.17 80.3 193.13 80.34 193.13 80.42V84.212C193.13 84.292 193.098 84.364 193.034 84.428C192.986 84.476 192.922 84.5 192.842 84.5H189.434C189.354 84.5 189.282 84.476 189.218 84.428C189.17 84.364 189.146 84.292 189.146 84.212V80.42C189.146 80.34 189.106 80.3 189.026 80.3H181.538C181.458 80.3 181.386 80.276 181.322 80.228C181.274 80.164 181.25 80.092 181.25 80.012V77.684C181.25 77.588 181.274 77.468 181.322 77.324L185.45 67.916C185.514 67.772 185.626 67.7 185.786 67.7H189.434C189.546 67.7 189.618 67.732 189.65 67.796C189.698 67.844 189.698 67.924 189.65 68.036L185.882 76.628C185.866 76.66 185.866 76.692 185.882 76.724C185.898 76.756 185.922 76.772 185.954 76.772H189.026C189.106 76.772 189.146 76.732 189.146 76.652V73.964C189.146 73.884 189.17 73.82 189.218 73.772C189.282 73.708 189.354 73.676 189.434 73.676H192.842C192.922 73.676 192.986 73.708 193.034 73.772C193.098 73.82 193.13 73.884 193.13 73.964V76.652C193.13 76.732 193.17 76.772 193.25 76.772H194.282ZM202.418 84.788C200.578 84.788 199.13 84.276 198.074 83.252C197.018 82.212 196.49 80.804 196.49 79.028V73.172C196.49 71.412 197.018 70.028 198.074 69.02C199.13 68.012 200.578 67.508 202.418 67.508C204.258 67.508 205.714 68.02 206.786 69.044C207.858 70.052 208.394 71.428 208.394 73.172V79.028C208.394 80.804 207.858 82.212 206.786 83.252C205.714 84.276 204.258 84.788 202.418 84.788ZM202.418 81.356C203.026 81.356 203.506 81.172 203.858 80.804C204.226 80.42 204.41 79.9 204.41 79.244V73.028C204.41 72.372 204.226 71.86 203.858 71.492C203.506 71.108 203.026 70.916 202.418 70.916C201.826 70.916 201.354 71.108 201.002 71.492C200.65 71.86 200.474 72.372 200.474 73.028V79.244C200.474 79.9 200.642 80.42 200.978 80.804C201.33 81.172 201.81 81.356 202.418 81.356ZM210.321 87.02C210.113 87.02 210.025 86.916 210.057 86.708L210.777 80.948C210.793 80.772 210.889 80.684 211.065 80.684H214.017C214.225 80.684 214.305 80.788 214.257 80.996L212.745 86.78C212.697 86.94 212.585 87.02 212.409 87.02H210.321ZM221.953 80.948C221.921 80.98 221.913 81.012 221.929 81.044C221.945 81.076 221.977 81.092 222.025 81.092H228.145C228.225 81.092 228.289 81.124 228.337 81.188C228.401 81.236 228.433 81.3 228.433 81.38V84.212C228.433 84.292 228.401 84.364 228.337 84.428C228.289 84.476 228.225 84.5 228.145 84.5H216.889C216.809 84.5 216.737 84.476 216.673 84.428C216.625 84.364 216.601 84.292 216.601 84.212V81.548C216.601 81.404 216.649 81.284 216.745 81.188C217.705 80.292 218.977 79.004 220.561 77.324L222.001 75.812C223.457 74.308 224.185 73.212 224.185 72.524C224.185 72.06 224.009 71.676 223.657 71.372C223.321 71.068 222.881 70.916 222.337 70.916C221.793 70.916 221.353 71.068 221.017 71.372C220.681 71.676 220.513 72.076 220.513 72.572V73.148C220.513 73.228 220.481 73.3 220.417 73.364C220.369 73.412 220.305 73.436 220.225 73.436H216.769C216.689 73.436 216.617 73.412 216.553 73.364C216.505 73.3 216.481 73.228 216.481 73.148V71.948C216.545 71.052 216.841 70.268 217.369 69.596C217.897 68.924 218.593 68.412 219.457 68.06C220.321 67.692 221.281 67.508 222.337 67.508C223.521 67.508 224.553 67.732 225.433 68.18C226.329 68.612 227.009 69.204 227.473 69.956C227.953 70.708 228.193 71.54 228.193 72.452C228.193 73.108 228.033 73.772 227.713 74.444C227.393 75.116 226.913 75.828 226.273 76.58C225.825 77.124 225.321 77.676 224.761 78.236C224.201 78.796 223.425 79.548 222.433 80.492L221.953 80.948ZM241.377 76.748C241.649 77.516 241.785 78.284 241.785 79.052C241.785 79.852 241.641 80.62 241.353 81.356C240.937 82.348 240.241 83.148 239.265 83.756C238.305 84.348 237.193 84.644 235.929 84.644C234.665 84.644 233.553 84.356 232.593 83.78C231.633 83.188 230.937 82.388 230.505 81.38C230.329 80.932 230.201 80.452 230.121 79.94V79.892C230.121 79.716 230.217 79.628 230.409 79.628H233.913C234.057 79.628 234.169 79.708 234.249 79.868C234.265 79.964 234.321 80.092 234.417 80.252C234.721 80.908 235.209 81.236 235.881 81.236C236.217 81.236 236.521 81.156 236.793 80.996C237.065 80.82 237.281 80.572 237.441 80.252C237.617 79.932 237.705 79.532 237.705 79.052C237.705 78.604 237.625 78.22 237.465 77.9C237.353 77.612 237.161 77.388 236.889 77.228C236.633 77.052 236.337 76.964 236.001 76.964C235.633 76.964 235.289 77.052 234.969 77.228C234.649 77.404 234.433 77.628 234.321 77.9C234.273 78.06 234.169 78.14 234.009 78.14H230.433C230.353 78.14 230.281 78.116 230.217 78.068C230.169 78.004 230.145 77.932 230.145 77.852V67.988C230.145 67.908 230.169 67.844 230.217 67.796C230.281 67.732 230.353 67.7 230.433 67.7H240.945C241.025 67.7 241.089 67.732 241.137 67.796C241.201 67.844 241.233 67.908 241.233 67.988V70.82C241.233 70.9 241.201 70.972 241.137 71.036C241.089 71.084 241.025 71.108 240.945 71.108H234.249C234.169 71.108 234.129 71.148 234.129 71.228V74.036C234.129 74.084 234.145 74.116 234.177 74.132C234.209 74.148 234.241 74.14 234.273 74.108C234.929 73.724 235.673 73.532 236.505 73.532C237.641 73.532 238.641 73.82 239.505 74.396C240.369 74.972 240.993 75.756 241.377 76.748Z" fill="#5F5F5F"/>
<path d="M43.9296 125.502C43.3323 125.502 42.8075 125.387 42.3552 125.157C41.9029 124.918 41.5488 124.585 41.2928 124.158C41.0453 123.732 40.9216 123.241 40.9216 122.686V119.154C40.9216 118.599 41.0453 118.108 41.2928 117.682C41.5488 117.255 41.9029 116.926 42.3552 116.696C42.8075 116.457 43.3323 116.338 43.9296 116.338C44.5184 116.338 45.0389 116.453 45.4912 116.683C45.952 116.914 46.3061 117.238 46.5536 117.656C46.8011 118.066 46.9248 118.531 46.9248 119.051V119.218C46.9248 119.303 46.8821 119.346 46.7968 119.346H46.144C46.0587 119.346 46.016 119.303 46.016 119.218V119.064C46.016 118.492 45.824 118.027 45.44 117.669C45.0645 117.31 44.5611 117.131 43.9296 117.131C43.2981 117.131 42.7904 117.315 42.4064 117.682C42.0224 118.049 41.8304 118.531 41.8304 119.128V122.712C41.8304 123.309 42.0267 123.791 42.4192 124.158C42.8117 124.525 43.328 124.709 43.968 124.709C44.5909 124.709 45.0859 124.538 45.4528 124.197C45.8283 123.855 46.016 123.399 46.016 122.827V121.662C46.016 121.628 45.9989 121.611 45.9648 121.611H44.0832C43.9979 121.611 43.9552 121.569 43.9552 121.483V120.946C43.9552 120.86 43.9979 120.818 44.0832 120.818H46.7968C46.8821 120.818 46.9248 120.86 46.9248 120.946V122.597C46.9248 123.51 46.6517 124.222 46.1056 124.734C45.568 125.246 44.8427 125.502 43.9296 125.502ZM51.0265 118.821C51.7945 118.821 52.3876 119.017 52.8057 119.41C53.2238 119.802 53.4329 120.323 53.4329 120.971V125.272C53.4329 125.357 53.3902 125.4 53.3049 125.4H52.6521C52.5668 125.4 52.5241 125.357 52.5241 125.272V124.747C52.5241 124.73 52.5156 124.717 52.4985 124.709C52.49 124.7 52.4772 124.705 52.4601 124.722C52.2468 124.978 51.9694 125.174 51.6281 125.31C51.2868 125.438 50.907 125.502 50.4889 125.502C49.883 125.502 49.3753 125.349 48.9657 125.042C48.5561 124.734 48.3513 124.265 48.3513 123.634C48.3513 122.994 48.5817 122.49 49.0425 122.123C49.5118 121.748 50.1604 121.56 50.9881 121.56H52.4729C52.507 121.56 52.5241 121.543 52.5241 121.509V121.022C52.5241 120.587 52.4004 120.246 52.1529 119.998C51.914 119.742 51.5385 119.614 51.0265 119.614C50.6169 119.614 50.2841 119.695 50.0281 119.858C49.7721 120.011 49.6142 120.229 49.5545 120.51C49.5289 120.596 49.4777 120.634 49.4009 120.626L48.7097 120.536C48.6158 120.519 48.5774 120.485 48.5945 120.434C48.6628 119.956 48.9188 119.567 49.3625 119.269C49.8062 118.97 50.3609 118.821 51.0265 118.821ZM50.6681 124.722C51.1716 124.722 51.6068 124.598 51.9737 124.35C52.3406 124.094 52.5241 123.753 52.5241 123.326V122.328C52.5241 122.294 52.507 122.277 52.4729 122.277H51.1289C50.5657 122.277 50.1134 122.392 49.7721 122.622C49.4308 122.853 49.2601 123.173 49.2601 123.582C49.2601 123.958 49.3881 124.244 49.6441 124.44C49.9086 124.628 50.25 124.722 50.6681 124.722ZM58.012 118.834C58.6947 118.834 59.2365 119.034 59.6376 119.435C60.0472 119.836 60.252 120.374 60.252 121.048V125.272C60.252 125.357 60.2093 125.4 60.124 125.4H59.4712C59.3859 125.4 59.3432 125.357 59.3432 125.272V121.227C59.3432 120.758 59.1981 120.374 58.908 120.075C58.6264 119.777 58.2595 119.627 57.8072 119.627C57.3379 119.627 56.9581 119.772 56.668 120.062C56.3779 120.353 56.2328 120.732 56.2328 121.202V125.272C56.2328 125.357 56.1901 125.4 56.1048 125.4H55.452C55.3667 125.4 55.324 125.357 55.324 125.272V119.051C55.324 118.966 55.3667 118.923 55.452 118.923H56.1048C56.1901 118.923 56.2328 118.966 56.2328 119.051V119.602C56.2328 119.619 56.2371 119.631 56.2456 119.64C56.2627 119.649 56.2755 119.644 56.284 119.627C56.6595 119.098 57.2355 118.834 58.012 118.834ZM64.8995 118.834C65.5822 118.834 66.124 119.034 66.5251 119.435C66.9347 119.836 67.1395 120.374 67.1395 121.048V125.272C67.1395 125.357 67.0968 125.4 67.0115 125.4H66.3587C66.2734 125.4 66.2307 125.357 66.2307 125.272V121.227C66.2307 120.758 66.0856 120.374 65.7955 120.075C65.5139 119.777 65.147 119.627 64.6947 119.627C64.2254 119.627 63.8456 119.772 63.5555 120.062C63.2654 120.353 63.1203 120.732 63.1203 121.202V125.272C63.1203 125.357 63.0776 125.4 62.9923 125.4H62.3395C62.2542 125.4 62.2115 125.357 62.2115 125.272V116.568C62.2115 116.483 62.2542 116.44 62.3395 116.44H62.9923C63.0776 116.44 63.1203 116.483 63.1203 116.568V119.602C63.1203 119.619 63.1246 119.631 63.1331 119.64C63.1502 119.649 63.163 119.644 63.1715 119.627C63.547 119.098 64.123 118.834 64.8995 118.834ZM71.4944 125.502C70.88 125.502 70.3509 125.345 69.9072 125.029C69.4635 124.713 69.1563 124.278 68.9856 123.723C68.8661 123.331 68.8064 122.806 68.8064 122.149C68.8064 121.492 68.8661 120.971 68.9856 120.587C69.1477 120.041 69.4507 119.61 69.8944 119.294C70.3381 118.979 70.8757 118.821 71.5072 118.821C72.1131 118.821 72.6336 118.979 73.0688 119.294C73.5125 119.61 73.8155 120.037 73.9776 120.574C74.0971 120.941 74.1568 121.466 74.1568 122.149C74.1568 122.84 74.0971 123.365 73.9776 123.723C73.8155 124.278 73.5125 124.713 73.0688 125.029C72.6336 125.345 72.1088 125.502 71.4944 125.502ZM71.4944 124.709C71.904 124.709 72.2539 124.598 72.544 124.376C72.8341 124.146 73.0304 123.838 73.1328 123.454C73.2096 123.147 73.248 122.716 73.248 122.162C73.248 121.598 73.2139 121.167 73.1456 120.869C73.0432 120.485 72.8427 120.182 72.544 119.96C72.2539 119.73 71.8997 119.614 71.4816 119.614C71.0635 119.614 70.7093 119.73 70.4192 119.96C70.1291 120.182 69.9328 120.485 69.8304 120.869C69.7621 121.167 69.728 121.598 69.728 122.162C69.728 122.725 69.7621 123.156 69.8304 123.454C69.9243 123.838 70.1163 124.146 70.4064 124.376C70.7051 124.598 71.0677 124.709 71.4944 124.709ZM78.1238 125.464C77.6459 125.464 77.2193 125.387 76.8438 125.234C76.4769 125.08 76.191 124.875 75.9862 124.619C75.7899 124.363 75.6918 124.077 75.6918 123.762V123.608C75.6918 123.523 75.7345 123.48 75.8198 123.48H76.4342C76.5195 123.48 76.5622 123.523 76.5622 123.608V123.71C76.5622 123.992 76.7073 124.239 76.9974 124.453C77.2961 124.658 77.6673 124.76 78.111 124.76C78.5547 124.76 78.9131 124.662 79.1862 124.466C79.4593 124.261 79.5958 124.005 79.5958 123.698C79.5958 123.484 79.5233 123.309 79.3782 123.173C79.2417 123.036 79.0753 122.93 78.879 122.853C78.6913 122.776 78.3969 122.678 77.9958 122.558C77.5179 122.422 77.1254 122.285 76.8182 122.149C76.511 122.012 76.2507 121.825 76.0374 121.586C75.8326 121.338 75.7302 121.027 75.7302 120.651C75.7302 120.105 75.9435 119.67 76.3702 119.346C76.7969 119.021 77.3601 118.859 78.0598 118.859C78.5291 118.859 78.943 118.936 79.3014 119.09C79.6683 119.243 79.9499 119.457 80.1462 119.73C80.3425 119.994 80.4406 120.293 80.4406 120.626V120.664C80.4406 120.749 80.3979 120.792 80.3126 120.792H79.711C79.6257 120.792 79.583 120.749 79.583 120.664V120.626C79.583 120.335 79.4422 120.092 79.1606 119.896C78.8875 119.7 78.5163 119.602 78.047 119.602C77.6118 119.602 77.2619 119.691 76.9974 119.87C76.7329 120.041 76.6006 120.28 76.6006 120.587C76.6006 120.877 76.7286 121.099 76.9846 121.253C77.2406 121.406 77.6374 121.56 78.175 121.714C78.6699 121.859 79.071 121.995 79.3782 122.123C79.6854 122.251 79.9499 122.439 80.1718 122.686C80.3937 122.925 80.5046 123.241 80.5046 123.634C80.5046 124.188 80.287 124.632 79.8518 124.965C79.4166 125.298 78.8406 125.464 78.1238 125.464ZM84.852 125.4C84.7667 125.4 84.724 125.357 84.724 125.272V116.568C84.724 116.483 84.7667 116.44 84.852 116.44H85.5048C85.5901 116.44 85.6328 116.483 85.6328 116.568V125.272C85.6328 125.357 85.5901 125.4 85.5048 125.4H84.852ZM87.674 125.4C87.5887 125.4 87.546 125.357 87.546 125.272V119.051C87.546 118.966 87.5887 118.923 87.674 118.923H88.3268C88.4121 118.923 88.4548 118.966 88.4548 119.051V125.272C88.4548 125.357 88.4121 125.4 88.3268 125.4H87.674ZM87.5844 118.078C87.5332 118.078 87.4991 118.066 87.482 118.04C87.4649 118.006 87.4692 117.967 87.4948 117.925L88.2628 116.53C88.2884 116.47 88.3396 116.44 88.4164 116.44H88.9924C89.0436 116.44 89.0735 116.457 89.082 116.491C89.0991 116.517 89.0948 116.551 89.0692 116.594L88.1988 117.989C88.1561 118.049 88.1049 118.078 88.0452 118.078H87.5844ZM94.4057 119.051C94.4057 118.966 94.4484 118.923 94.5337 118.923H95.1865C95.2718 118.923 95.3145 118.966 95.3145 119.051V127.755C95.3145 127.841 95.2718 127.883 95.1865 127.883H94.5337C94.4484 127.883 94.4057 127.841 94.4057 127.755V124.747C94.4057 124.73 94.3972 124.722 94.3801 124.722C94.3716 124.713 94.3588 124.717 94.3417 124.734C94.154 124.982 93.9193 125.174 93.6377 125.31C93.3561 125.438 93.0489 125.502 92.7161 125.502C92.1102 125.502 91.6025 125.349 91.1929 125.042C90.7833 124.726 90.5017 124.295 90.3481 123.749C90.2457 123.399 90.1945 122.87 90.1945 122.162C90.1945 121.462 90.2542 120.92 90.3737 120.536C90.5273 120.007 90.8046 119.589 91.2057 119.282C91.6153 118.974 92.1188 118.821 92.7161 118.821C93.0574 118.821 93.3646 118.889 93.6377 119.026C93.9193 119.162 94.154 119.354 94.3417 119.602C94.3588 119.619 94.3716 119.627 94.3801 119.627C94.3972 119.619 94.4057 119.606 94.4057 119.589V119.051ZM94.1625 123.749C94.2478 123.57 94.3076 123.365 94.3417 123.134C94.3758 122.895 94.3929 122.571 94.3929 122.162C94.3929 121.752 94.3758 121.432 94.3417 121.202C94.3076 120.971 94.2521 120.771 94.1753 120.6C94.0644 120.301 93.8937 120.062 93.6633 119.883C93.4329 119.704 93.147 119.614 92.8057 119.614C92.4473 119.614 92.1358 119.704 91.8713 119.883C91.6153 120.062 91.4361 120.306 91.3337 120.613C91.2484 120.792 91.1886 120.997 91.1545 121.227C91.1204 121.449 91.1033 121.761 91.1033 122.162C91.1033 122.58 91.1246 122.908 91.1673 123.147C91.2185 123.378 91.2953 123.587 91.3977 123.774C91.5086 124.056 91.6878 124.282 91.9353 124.453C92.1828 124.623 92.4772 124.709 92.8185 124.709C93.1428 124.709 93.4201 124.623 93.6505 124.453C93.8894 124.274 94.0601 124.039 94.1625 123.749ZM101.366 119.051C101.366 118.966 101.408 118.923 101.494 118.923H102.147C102.232 118.923 102.275 118.966 102.275 119.051V125.272C102.275 125.357 102.232 125.4 102.147 125.4H101.494C101.408 125.4 101.366 125.357 101.366 125.272V124.722C101.366 124.705 101.357 124.692 101.34 124.683C101.323 124.675 101.31 124.679 101.302 124.696C100.943 125.225 100.376 125.49 99.5994 125.49C99.1898 125.49 98.8101 125.409 98.4602 125.246C98.1189 125.076 97.8458 124.833 97.641 124.517C97.4447 124.201 97.3466 123.821 97.3466 123.378V119.051C97.3466 118.966 97.3893 118.923 97.4746 118.923H98.1274C98.2127 118.923 98.2554 118.966 98.2554 119.051V123.109C98.2554 123.595 98.3919 123.983 98.665 124.274C98.9381 124.555 99.3093 124.696 99.7786 124.696C100.265 124.696 100.649 124.551 100.931 124.261C101.221 123.971 101.366 123.587 101.366 123.109V119.051ZM104.926 117.746C104.721 117.746 104.55 117.677 104.414 117.541C104.277 117.404 104.209 117.234 104.209 117.029C104.209 116.815 104.277 116.645 104.414 116.517C104.55 116.38 104.721 116.312 104.926 116.312C105.131 116.312 105.301 116.38 105.438 116.517C105.574 116.645 105.643 116.815 105.643 117.029C105.643 117.234 105.574 117.404 105.438 117.541C105.301 117.677 105.131 117.746 104.926 117.746ZM104.568 125.387C104.482 125.387 104.44 125.345 104.44 125.259V119.038C104.44 118.953 104.482 118.91 104.568 118.91H105.22C105.306 118.91 105.348 118.953 105.348 119.038V125.259C105.348 125.345 105.306 125.387 105.22 125.387H104.568ZM111.593 116.568C111.593 116.483 111.636 116.44 111.721 116.44H112.374C112.459 116.44 112.502 116.483 112.502 116.568V125.272C112.502 125.357 112.459 125.4 112.374 125.4H111.721C111.636 125.4 111.593 125.357 111.593 125.272V124.734C111.593 124.717 111.585 124.709 111.568 124.709C111.559 124.7 111.546 124.705 111.529 124.722C111.341 124.969 111.107 125.161 110.825 125.298C110.552 125.434 110.245 125.502 109.904 125.502C109.306 125.502 108.803 125.349 108.393 125.042C107.992 124.734 107.715 124.316 107.561 123.787C107.442 123.403 107.382 122.861 107.382 122.162C107.382 121.453 107.433 120.924 107.536 120.574C107.689 120.028 107.971 119.602 108.38 119.294C108.79 118.979 109.298 118.821 109.904 118.821C110.236 118.821 110.544 118.889 110.825 119.026C111.107 119.154 111.341 119.341 111.529 119.589C111.546 119.606 111.559 119.614 111.568 119.614C111.585 119.606 111.593 119.593 111.593 119.576V116.568ZM111.363 123.723C111.44 123.553 111.495 123.352 111.529 123.122C111.563 122.891 111.58 122.571 111.58 122.162C111.58 121.752 111.563 121.432 111.529 121.202C111.495 120.963 111.435 120.754 111.35 120.574C111.248 120.284 111.077 120.054 110.838 119.883C110.608 119.704 110.33 119.614 110.006 119.614C109.665 119.614 109.37 119.7 109.123 119.87C108.875 120.041 108.696 120.267 108.585 120.549C108.483 120.737 108.406 120.95 108.355 121.189C108.312 121.419 108.291 121.743 108.291 122.162C108.291 122.563 108.308 122.878 108.342 123.109C108.376 123.331 108.436 123.531 108.521 123.71C108.624 124.018 108.803 124.261 109.059 124.44C109.323 124.619 109.635 124.709 109.993 124.709C110.335 124.709 110.62 124.619 110.851 124.44C111.081 124.261 111.252 124.022 111.363 123.723ZM117.032 125.502C116.417 125.502 115.888 125.345 115.445 125.029C115.001 124.713 114.694 124.278 114.523 123.723C114.404 123.331 114.344 122.806 114.344 122.149C114.344 121.492 114.404 120.971 114.523 120.587C114.685 120.041 114.988 119.61 115.432 119.294C115.876 118.979 116.413 118.821 117.045 118.821C117.651 118.821 118.171 118.979 118.606 119.294C119.05 119.61 119.353 120.037 119.515 120.574C119.635 120.941 119.694 121.466 119.694 122.149C119.694 122.84 119.635 123.365 119.515 123.723C119.353 124.278 119.05 124.713 118.606 125.029C118.171 125.345 117.646 125.502 117.032 125.502ZM117.032 124.709C117.441 124.709 117.791 124.598 118.081 124.376C118.372 124.146 118.568 123.838 118.67 123.454C118.747 123.147 118.785 122.716 118.785 122.162C118.785 121.598 118.751 121.167 118.683 120.869C118.581 120.485 118.38 120.182 118.081 119.96C117.791 119.73 117.437 119.614 117.019 119.614C116.601 119.614 116.247 119.73 115.957 119.96C115.667 120.182 115.47 120.485 115.368 120.869C115.3 121.167 115.265 121.598 115.265 122.162C115.265 122.725 115.3 123.156 115.368 123.454C115.462 123.838 115.654 124.146 115.944 124.376C116.243 124.598 116.605 124.709 117.032 124.709ZM123.661 125.464C123.183 125.464 122.757 125.387 122.381 125.234C122.014 125.08 121.728 124.875 121.524 124.619C121.327 124.363 121.229 124.077 121.229 123.762V123.608C121.229 123.523 121.272 123.48 121.357 123.48H121.972C122.057 123.48 122.1 123.523 122.1 123.608V123.71C122.1 123.992 122.245 124.239 122.535 124.453C122.834 124.658 123.205 124.76 123.648 124.76C124.092 124.76 124.451 124.662 124.724 124.466C124.997 124.261 125.133 124.005 125.133 123.698C125.133 123.484 125.061 123.309 124.916 123.173C124.779 123.036 124.613 122.93 124.416 122.853C124.229 122.776 123.934 122.678 123.533 122.558C123.055 122.422 122.663 122.285 122.356 122.149C122.048 122.012 121.788 121.825 121.575 121.586C121.37 121.338 121.268 121.027 121.268 120.651C121.268 120.105 121.481 119.67 121.908 119.346C122.334 119.021 122.898 118.859 123.597 118.859C124.067 118.859 124.48 118.936 124.839 119.09C125.206 119.243 125.487 119.457 125.684 119.73C125.88 119.994 125.978 120.293 125.978 120.626V120.664C125.978 120.749 125.935 120.792 125.85 120.792H125.248C125.163 120.792 125.12 120.749 125.12 120.664V120.626C125.12 120.335 124.98 120.092 124.698 119.896C124.425 119.7 124.054 119.602 123.584 119.602C123.149 119.602 122.799 119.691 122.535 119.87C122.27 120.041 122.138 120.28 122.138 120.587C122.138 120.877 122.266 121.099 122.522 121.253C122.778 121.406 123.175 121.56 123.712 121.714C124.207 121.859 124.608 121.995 124.916 122.123C125.223 122.251 125.487 122.439 125.709 122.686C125.931 122.925 126.042 123.241 126.042 123.634C126.042 124.188 125.824 124.632 125.389 124.965C124.954 125.298 124.378 125.464 123.661 125.464Z" fill="#5F5F5F"/>
<path d="M243.422 64.9434C238.032 63.3711 233.54 59.3281 232.866 54.1621C231.967 46.9746 237.583 40.9102 244.995 40.0117V35.9688C244.995 34.1719 246.567 32.375 248.813 32.375H252.631C254.877 32.375 256.674 34.1719 256.674 35.9688V40.0117C259.37 40.4609 262.065 41.3594 264.311 42.707C264.985 43.1562 265.659 43.8301 265.659 44.9531C265.659 45.4023 265.434 45.8516 265.209 46.0762C264.985 46.3008 264.985 46.5254 264.76 46.75L260.493 50.793C259.594 51.4668 258.247 51.6914 257.124 51.2422C256.225 50.793 255.327 50.5684 254.428 50.5684H246.567C245.444 50.5684 244.545 51.4668 244.545 52.5898C244.545 53.4883 244.995 54.1621 245.893 54.3867L258.022 57.5312C263.637 59.1035 267.905 63.1465 268.579 68.3125C269.477 75.5 263.862 81.5645 256.674 82.4629V86.2812C256.674 88.3027 254.877 89.875 252.631 89.875H248.813C246.567 89.875 244.77 88.3027 244.77 86.2812V82.4629C242.075 82.2383 239.379 81.1152 237.133 79.7676C236.459 79.3184 235.786 78.6445 235.786 77.5215C235.786 77.0723 236.01 76.623 236.235 76.3984C236.459 76.1738 236.459 75.9492 236.684 75.7246L240.952 71.6816C241.85 71.0078 243.198 70.7832 244.545 71.2324C245.219 71.6816 246.118 71.9062 247.016 71.9062H254.877C256 71.9062 256.899 71.0078 256.899 69.8848C256.899 68.9863 256.45 68.3125 255.551 68.0879L243.422 64.9434ZM309.458 106.271C310.805 107.395 311.928 109.416 311.928 111.438C311.928 113.908 310.805 115.93 309.233 117.053L275.092 144.23C272.622 146.252 269.477 147.375 266.108 147.375H186.147C184.125 147.375 182.553 145.803 182.553 143.781V122.219C182.553 120.422 184.125 118.625 186.147 118.625H198.5L208.833 110.314C213.549 106.496 219.165 104.475 225.678 104.25H261.616C265.434 104.25 268.579 107.619 268.803 111.438C268.803 111.438 268.803 111.438 268.803 111.662C268.803 111.887 268.579 112.336 268.579 112.785C268.129 116.379 264.76 118.625 261.167 118.625H243.647C241.625 118.625 240.053 120.422 240.053 122.219C240.053 124.24 241.625 125.812 243.647 125.812H270.151C273.52 125.812 276.665 124.689 279.135 122.668L299.799 106.271C302.719 104.025 306.762 103.801 309.458 106.271Z" fill="black" fill-opacity="0.02"/>
</g>
</g>
<g filter="url(#filter1_d_9_783)">
<rect x="19" y="168" width="317" height="126" rx="4" fill="#F5F5F5" shape-rendering="crispEdges"/>
<rect x="19.5" y="168.5" width="316" height="125" rx="3.5" stroke="#6F6F6F" stroke-opacity="0.125" shape-rendering="crispEdges"/>
<g clip-path="url(#clip2_9_783)">
<rect x="40" y="189" width="46" height="48" rx="16.45" fill="#FF3453" fill-opacity="0.17"/>
<path d="M72.6094 207C73.9219 207 75 208.031 75 209.25V221.25C75 222.516 73.9219 223.5 72.6094 223.5H54C52.3125 223.5 51 222.188 51 220.5V205.5C51 203.859 52.3125 202.5 54 202.5H71.25C72.4688 202.5 73.5 203.531 73.5 204.75C73.5 205.172 73.125 205.5 72.75 205.5H54.75C54.3281 205.5 54 205.875 54 206.25C54 206.672 54.3281 207 54.75 207H72.6094ZM70.5 216.75C71.2969 216.75 72 216.094 72 215.25C72 214.453 71.2969 213.75 70.5 213.75C69.6562 213.75 69 214.453 69 215.25C69 216.094 69.6562 216.75 70.5 216.75Z" fill="#FF3453"/>
<path d="M108.981 222.5C108.821 222.5 108.709 222.428 108.645 222.284L105.813 215.9C105.781 215.836 105.733 215.804 105.669 215.804H104.085C104.005 215.804 103.965 215.844 103.965 215.924V222.212C103.965 222.292 103.933 222.364 103.869 222.428C103.821 222.476 103.757 222.5 103.677 222.5H100.269C100.189 222.5 100.117 222.476 100.053 222.428C100.005 222.364 99.9807 222.292 99.9807 222.212V205.988C99.9807 205.908 100.005 205.844 100.053 205.796C100.117 205.732 100.189 205.7 100.269 205.7H107.397C108.453 205.7 109.381 205.916 110.181 206.348C110.981 206.78 111.597 207.396 112.029 208.196C112.477 208.98 112.701 209.884 112.701 210.908C112.701 211.98 112.437 212.908 111.909 213.692C111.381 214.476 110.645 215.044 109.701 215.396C109.621 215.428 109.597 215.484 109.629 215.564L112.797 222.164C112.829 222.228 112.845 222.276 112.845 222.308C112.845 222.436 112.757 222.5 112.581 222.5H108.981ZM104.085 209.108C104.005 209.108 103.965 209.148 103.965 209.228V212.636C103.965 212.716 104.005 212.756 104.085 212.756H106.749C107.341 212.756 107.821 212.596 108.189 212.276C108.557 211.94 108.741 211.5 108.741 210.956C108.741 210.396 108.557 209.948 108.189 209.612C107.821 209.276 107.341 209.108 106.749 209.108H104.085ZM126.603 217.652C126.603 218.948 126.211 220.028 125.427 220.892C124.643 221.74 123.571 222.292 122.211 222.548C122.131 222.58 122.091 222.628 122.091 222.692L122.139 224.204C122.139 224.284 122.107 224.348 122.043 224.396C121.995 224.46 121.931 224.492 121.851 224.492H118.923C118.843 224.492 118.771 224.46 118.707 224.396C118.659 224.348 118.635 224.284 118.635 224.204L118.683 222.644C118.683 222.58 118.643 222.532 118.563 222.5C117.219 222.196 116.163 221.604 115.395 220.724C114.643 219.844 114.267 218.764 114.267 217.484V217.028C114.267 216.948 114.291 216.884 114.339 216.836C114.403 216.772 114.475 216.74 114.555 216.74H117.723C117.803 216.74 117.867 216.772 117.915 216.836C117.979 216.884 118.011 216.948 118.011 217.028V217.316C118.011 217.844 118.267 218.308 118.779 218.708C119.291 219.092 119.971 219.284 120.819 219.284C121.491 219.284 121.987 219.132 122.307 218.828C122.627 218.524 122.787 218.172 122.787 217.772C122.787 217.324 122.595 216.988 122.211 216.764C121.843 216.524 121.179 216.236 120.219 215.9C119.995 215.836 119.827 215.78 119.715 215.732C118.723 215.396 117.859 215.036 117.123 214.652C116.387 214.252 115.755 213.708 115.227 213.02C114.715 212.316 114.459 211.452 114.459 210.428C114.459 209.212 114.827 208.188 115.563 207.356C116.315 206.524 117.315 205.972 118.563 205.7C118.627 205.684 118.659 205.636 118.659 205.556L118.635 203.78C118.635 203.7 118.659 203.636 118.707 203.588C118.771 203.524 118.843 203.492 118.923 203.492H121.827C121.907 203.492 121.971 203.524 122.019 203.588C122.083 203.636 122.115 203.7 122.115 203.78L122.067 205.58C122.067 205.66 122.099 205.708 122.163 205.724C123.475 206.044 124.523 206.668 125.307 207.596C126.107 208.508 126.507 209.604 126.507 210.884V211.22C126.507 211.3 126.475 211.372 126.411 211.436C126.363 211.484 126.299 211.508 126.219 211.508H123.027C122.947 211.508 122.875 211.484 122.811 211.436C122.763 211.372 122.739 211.3 122.739 211.22V211.052C122.739 210.492 122.499 209.996 122.019 209.564C121.555 209.132 120.923 208.916 120.123 208.916C119.531 208.916 119.059 209.044 118.707 209.3C118.371 209.556 118.203 209.916 118.203 210.38C118.203 210.732 118.307 211.028 118.515 211.268C118.739 211.492 119.075 211.7 119.523 211.892C119.971 212.084 120.667 212.348 121.611 212.684C122.683 213.068 123.515 213.404 124.107 213.692C124.715 213.98 125.283 214.452 125.811 215.108C126.339 215.748 126.603 216.596 126.603 217.652ZM130.735 205.772C130.863 205.724 130.983 205.7 131.095 205.7H134.599C134.679 205.7 134.743 205.732 134.791 205.796C134.855 205.844 134.887 205.908 134.887 205.988V222.212C134.887 222.292 134.855 222.364 134.791 222.428C134.743 222.476 134.679 222.5 134.599 222.5H131.191C131.111 222.5 131.039 222.476 130.975 222.428C130.927 222.364 130.903 222.292 130.903 222.212V209.516C130.903 209.484 130.887 209.452 130.855 209.42C130.823 209.388 130.791 209.38 130.759 209.396L128.407 209.948L128.311 209.972C128.167 209.972 128.095 209.884 128.095 209.708L128.047 207.188C128.047 207.028 128.119 206.916 128.263 206.852L130.735 205.772ZM139.477 205.772C139.605 205.724 139.725 205.7 139.837 205.7H143.341C143.421 205.7 143.485 205.732 143.533 205.796C143.597 205.844 143.629 205.908 143.629 205.988V222.212C143.629 222.292 143.597 222.364 143.533 222.428C143.485 222.476 143.421 222.5 143.341 222.5H139.933C139.853 222.5 139.781 222.476 139.717 222.428C139.669 222.364 139.645 222.292 139.645 222.212V209.516C139.645 209.484 139.629 209.452 139.597 209.42C139.565 209.388 139.533 209.38 139.501 209.396L137.149 209.948L137.053 209.972C136.909 209.972 136.837 209.884 136.837 209.708L136.789 207.188C136.789 207.028 136.861 206.916 137.005 206.852L139.477 205.772ZM147.72 222.644C147.112 222.644 146.608 222.452 146.208 222.068C145.824 221.668 145.632 221.164 145.632 220.556C145.632 219.932 145.824 219.428 146.208 219.044C146.608 218.66 147.112 218.468 147.72 218.468C148.328 218.468 148.824 218.66 149.208 219.044C149.592 219.428 149.784 219.932 149.784 220.556C149.784 221.164 149.584 221.668 149.184 222.068C148.8 222.452 148.312 222.644 147.72 222.644ZM157.359 218.948C157.327 218.98 157.319 219.012 157.335 219.044C157.351 219.076 157.383 219.092 157.431 219.092H163.551C163.631 219.092 163.695 219.124 163.743 219.188C163.807 219.236 163.839 219.3 163.839 219.38V222.212C163.839 222.292 163.807 222.364 163.743 222.428C163.695 222.476 163.631 222.5 163.551 222.5H152.295C152.215 222.5 152.143 222.476 152.079 222.428C152.031 222.364 152.007 222.292 152.007 222.212V219.548C152.007 219.404 152.055 219.284 152.151 219.188C153.111 218.292 154.383 217.004 155.967 215.324L157.407 213.812C158.863 212.308 159.591 211.212 159.591 210.524C159.591 210.06 159.415 209.676 159.063 209.372C158.727 209.068 158.287 208.916 157.743 208.916C157.199 208.916 156.759 209.068 156.423 209.372C156.087 209.676 155.919 210.076 155.919 210.572V211.148C155.919 211.228 155.887 211.3 155.823 211.364C155.775 211.412 155.711 211.436 155.631 211.436H152.175C152.095 211.436 152.023 211.412 151.959 211.364C151.911 211.3 151.887 211.228 151.887 211.148V209.948C151.951 209.052 152.247 208.268 152.775 207.596C153.303 206.924 153.999 206.412 154.863 206.06C155.727 205.692 156.687 205.508 157.743 205.508C158.927 205.508 159.959 205.732 160.839 206.18C161.735 206.612 162.415 207.204 162.879 207.956C163.359 208.708 163.599 209.54 163.599 210.452C163.599 211.108 163.439 211.772 163.119 212.444C162.799 213.116 162.319 213.828 161.679 214.58C161.231 215.124 160.727 215.676 160.167 216.236C159.607 216.796 158.831 217.548 157.839 218.492L157.359 218.948ZM167.977 205.772C168.105 205.724 168.225 205.7 168.337 205.7H171.841C171.921 205.7 171.985 205.732 172.033 205.796C172.097 205.844 172.129 205.908 172.129 205.988V222.212C172.129 222.292 172.097 222.364 172.033 222.428C171.985 222.476 171.921 222.5 171.841 222.5H168.433C168.353 222.5 168.281 222.476 168.217 222.428C168.169 222.364 168.145 222.292 168.145 222.212V209.516C168.145 209.484 168.129 209.452 168.097 209.42C168.065 209.388 168.033 209.38 168.001 209.396L165.649 209.948L165.553 209.972C165.409 209.972 165.337 209.884 165.337 209.708L165.289 207.188C165.289 207.028 165.361 206.916 165.505 206.852L167.977 205.772ZM185.244 214.748C185.516 215.516 185.652 216.284 185.652 217.052C185.652 217.852 185.508 218.62 185.22 219.356C184.804 220.348 184.108 221.148 183.132 221.756C182.172 222.348 181.06 222.644 179.796 222.644C178.532 222.644 177.42 222.356 176.46 221.78C175.5 221.188 174.804 220.388 174.372 219.38C174.196 218.932 174.068 218.452 173.988 217.94V217.892C173.988 217.716 174.084 217.628 174.276 217.628H177.78C177.924 217.628 178.036 217.708 178.116 217.868C178.132 217.964 178.188 218.092 178.284 218.252C178.588 218.908 179.076 219.236 179.748 219.236C180.084 219.236 180.388 219.156 180.66 218.996C180.932 218.82 181.148 218.572 181.308 218.252C181.484 217.932 181.572 217.532 181.572 217.052C181.572 216.604 181.492 216.22 181.332 215.9C181.22 215.612 181.028 215.388 180.756 215.228C180.5 215.052 180.204 214.964 179.868 214.964C179.5 214.964 179.156 215.052 178.836 215.228C178.516 215.404 178.3 215.628 178.188 215.9C178.14 216.06 178.036 216.14 177.876 216.14H174.3C174.22 216.14 174.148 216.116 174.084 216.068C174.036 216.004 174.012 215.932 174.012 215.852V205.988C174.012 205.908 174.036 205.844 174.084 205.796C174.148 205.732 174.22 205.7 174.3 205.7H184.812C184.892 205.7 184.956 205.732 185.004 205.796C185.068 205.844 185.1 205.908 185.1 205.988V208.82C185.1 208.9 185.068 208.972 185.004 209.036C184.956 209.084 184.892 209.108 184.812 209.108H178.116C178.036 209.108 177.996 209.148 177.996 209.228V212.036C177.996 212.084 178.012 212.116 178.044 212.132C178.076 212.148 178.108 212.14 178.14 212.108C178.796 211.724 179.54 211.532 180.372 211.532C181.508 211.532 182.508 211.82 183.372 212.396C184.236 212.972 184.86 213.756 185.244 214.748ZM187.305 225.02C187.097 225.02 187.009 224.916 187.041 224.708L187.761 218.948C187.777 218.772 187.873 218.684 188.049 218.684H191.001C191.209 218.684 191.289 218.788 191.241 218.996L189.729 224.78C189.681 224.94 189.569 225.02 189.393 225.02H187.305ZM204.481 214.436C204.801 215.204 204.961 216.028 204.961 216.908C204.961 217.772 204.801 218.58 204.481 219.332C204.065 220.372 203.385 221.196 202.441 221.804C201.497 222.396 200.385 222.692 199.105 222.692C197.857 222.692 196.753 222.388 195.793 221.78C194.833 221.156 194.137 220.316 193.705 219.26C193.449 218.62 193.297 217.916 193.249 217.148C193.249 216.956 193.345 216.86 193.537 216.86H196.993C197.185 216.86 197.289 216.956 197.305 217.148C197.337 217.548 197.433 217.932 197.593 218.3C197.721 218.62 197.913 218.868 198.169 219.044C198.425 219.204 198.729 219.284 199.081 219.284C199.753 219.284 200.257 218.98 200.593 218.372C200.817 217.972 200.929 217.444 200.929 216.788C200.929 216.148 200.817 215.588 200.593 215.108C200.257 214.516 199.745 214.22 199.057 214.22C198.881 214.22 198.681 214.284 198.457 214.412C198.249 214.524 197.977 214.7 197.641 214.94C197.561 214.988 197.497 215.012 197.449 215.012C197.353 215.012 197.281 214.964 197.233 214.868L195.529 212.468C195.481 212.388 195.457 212.324 195.457 212.276C195.457 212.18 195.497 212.108 195.577 212.06L199.273 209.252C199.305 209.22 199.313 209.188 199.297 209.156C199.297 209.124 199.273 209.108 199.225 209.108H193.969C193.889 209.108 193.817 209.084 193.753 209.036C193.705 208.972 193.681 208.9 193.681 208.82V205.988C193.681 205.908 193.705 205.844 193.753 205.796C193.817 205.732 193.889 205.7 193.969 205.7H204.433C204.513 205.7 204.577 205.732 204.625 205.796C204.689 205.844 204.721 205.908 204.721 205.988V209.18C204.721 209.324 204.665 209.444 204.553 209.54L201.649 211.82C201.617 211.852 201.601 211.884 201.601 211.916C201.617 211.948 201.649 211.972 201.697 211.988C202.977 212.324 203.905 213.14 204.481 214.436ZM217.869 214.748C218.141 215.516 218.277 216.284 218.277 217.052C218.277 217.852 218.133 218.62 217.845 219.356C217.429 220.348 216.733 221.148 215.757 221.756C214.797 222.348 213.685 222.644 212.421 222.644C211.157 222.644 210.045 222.356 209.085 221.78C208.125 221.188 207.429 220.388 206.997 219.38C206.821 218.932 206.693 218.452 206.613 217.94V217.892C206.613 217.716 206.709 217.628 206.901 217.628H210.405C210.549 217.628 210.661 217.708 210.741 217.868C210.757 217.964 210.813 218.092 210.909 218.252C211.213 218.908 211.701 219.236 212.373 219.236C212.709 219.236 213.013 219.156 213.285 218.996C213.557 218.82 213.773 218.572 213.933 218.252C214.109 217.932 214.197 217.532 214.197 217.052C214.197 216.604 214.117 216.22 213.957 215.9C213.845 215.612 213.653 215.388 213.381 215.228C213.125 215.052 212.829 214.964 212.493 214.964C212.125 214.964 211.781 215.052 211.461 215.228C211.141 215.404 210.925 215.628 210.813 215.9C210.765 216.06 210.661 216.14 210.501 216.14H206.925C206.845 216.14 206.773 216.116 206.709 216.068C206.661 216.004 206.637 215.932 206.637 215.852V205.988C206.637 205.908 206.661 205.844 206.709 205.796C206.773 205.732 206.845 205.7 206.925 205.7H217.437C217.517 205.7 217.581 205.732 217.629 205.796C217.693 205.844 217.725 205.908 217.725 205.988V208.82C217.725 208.9 217.693 208.972 217.629 209.036C217.581 209.084 217.517 209.108 217.437 209.108H210.741C210.661 209.108 210.621 209.148 210.621 209.228V212.036C210.621 212.084 210.637 212.116 210.669 212.132C210.701 212.148 210.733 212.14 210.765 212.108C211.421 211.724 212.165 211.532 212.997 211.532C214.133 211.532 215.133 211.82 215.997 212.396C216.861 212.972 217.485 213.756 217.869 214.748Z" fill="#5F5F5F"/>
<path d="M47.0016 254.706C47.0016 254.791 46.9589 254.834 46.8736 254.834H42.1632C42.1291 254.834 42.112 254.851 42.112 254.885V258.046C42.112 258.081 42.1291 258.098 42.1632 258.098H45.4656C45.5509 258.098 45.5936 258.14 45.5936 258.226V258.763C45.5936 258.849 45.5509 258.891 45.4656 258.891H42.1632C42.1291 258.891 42.112 258.908 42.112 258.942V262.155C42.112 262.189 42.1291 262.206 42.1632 262.206H46.8736C46.9589 262.206 47.0016 262.249 47.0016 262.334V262.872C47.0016 262.957 46.9589 263 46.8736 263H41.3312C41.2459 263 41.2032 262.957 41.2032 262.872V254.168C41.2032 254.083 41.2459 254.04 41.3312 254.04H46.8736C46.9589 254.04 47.0016 254.083 47.0016 254.168V254.706ZM52.7932 256.651C52.7932 256.566 52.8359 256.523 52.9212 256.523H53.574C53.6593 256.523 53.702 256.566 53.702 256.651V265.355C53.702 265.441 53.6593 265.483 53.574 265.483H52.9212C52.8359 265.483 52.7932 265.441 52.7932 265.355V262.347C52.7932 262.33 52.7847 262.322 52.7676 262.322C52.7591 262.313 52.7463 262.317 52.7292 262.334C52.5415 262.582 52.3068 262.774 52.0252 262.91C51.7436 263.038 51.4364 263.102 51.1036 263.102C50.4977 263.102 49.99 262.949 49.5804 262.642C49.1708 262.326 48.8892 261.895 48.7356 261.349C48.6332 260.999 48.582 260.47 48.582 259.762C48.582 259.062 48.6417 258.52 48.7612 258.136C48.9148 257.607 49.1921 257.189 49.5932 256.882C50.0028 256.574 50.5063 256.421 51.1036 256.421C51.4449 256.421 51.7521 256.489 52.0252 256.626C52.3068 256.762 52.5415 256.954 52.7292 257.202C52.7463 257.219 52.7591 257.227 52.7676 257.227C52.7847 257.219 52.7932 257.206 52.7932 257.189V256.651ZM52.55 261.349C52.6353 261.17 52.6951 260.965 52.7292 260.734C52.7633 260.495 52.7804 260.171 52.7804 259.762C52.7804 259.352 52.7633 259.032 52.7292 258.802C52.6951 258.571 52.6396 258.371 52.5628 258.2C52.4519 257.901 52.2812 257.662 52.0508 257.483C51.8204 257.304 51.5345 257.214 51.1932 257.214C50.8348 257.214 50.5233 257.304 50.2588 257.483C50.0028 257.662 49.8236 257.906 49.7212 258.213C49.6359 258.392 49.5761 258.597 49.542 258.827C49.5079 259.049 49.4908 259.361 49.4908 259.762C49.4908 260.18 49.5121 260.508 49.5548 260.747C49.606 260.978 49.6828 261.187 49.7852 261.374C49.8961 261.656 50.0753 261.882 50.3228 262.053C50.5703 262.223 50.8647 262.309 51.206 262.309C51.5303 262.309 51.8076 262.223 52.038 262.053C52.2769 261.874 52.4476 261.639 52.55 261.349ZM59.7533 256.651C59.7533 256.566 59.796 256.523 59.8813 256.523H60.5341C60.6194 256.523 60.6621 256.566 60.6621 256.651V262.872C60.6621 262.957 60.6194 263 60.5341 263H59.8813C59.796 263 59.7533 262.957 59.7533 262.872V262.322C59.7533 262.305 59.7448 262.292 59.7277 262.283C59.7106 262.275 59.6978 262.279 59.6893 262.296C59.3309 262.825 58.7634 263.09 57.9869 263.09C57.5773 263.09 57.1976 263.009 56.8477 262.846C56.5064 262.676 56.2333 262.433 56.0285 262.117C55.8322 261.801 55.7341 261.421 55.7341 260.978V256.651C55.7341 256.566 55.7768 256.523 55.8621 256.523H56.5149C56.6002 256.523 56.6429 256.566 56.6429 256.651V260.709C56.6429 261.195 56.7794 261.583 57.0525 261.874C57.3256 262.155 57.6968 262.296 58.1661 262.296C58.6525 262.296 59.0365 262.151 59.3181 261.861C59.6082 261.571 59.7533 261.187 59.7533 260.709V256.651ZM63.3134 255.346C63.1086 255.346 62.9379 255.277 62.8014 255.141C62.6649 255.004 62.5966 254.834 62.5966 254.629C62.5966 254.415 62.6649 254.245 62.8014 254.117C62.9379 253.98 63.1086 253.912 63.3134 253.912C63.5182 253.912 63.6889 253.98 63.8254 254.117C63.9619 254.245 64.0302 254.415 64.0302 254.629C64.0302 254.834 63.9619 255.004 63.8254 255.141C63.6889 255.277 63.5182 255.346 63.3134 255.346ZM62.955 262.987C62.8697 262.987 62.827 262.945 62.827 262.859V256.638C62.827 256.553 62.8697 256.51 62.955 256.51H63.6078C63.6931 256.51 63.7358 256.553 63.7358 256.638V262.859C63.7358 262.945 63.6931 262.987 63.6078 262.987H62.955ZM66.0895 263C66.0042 263 65.9615 262.957 65.9615 262.872V254.168C65.9615 254.083 66.0042 254.04 66.0895 254.04H66.7423C66.8276 254.04 66.8703 254.083 66.8703 254.168V262.872C66.8703 262.957 66.8276 263 66.7423 263H66.0895ZM68.9115 263C68.8262 263 68.7835 262.957 68.7835 262.872V256.651C68.7835 256.566 68.8262 256.523 68.9115 256.523H69.5643C69.6496 256.523 69.6923 256.566 69.6923 256.651V262.872C69.6923 262.957 69.6496 263 69.5643 263H68.9115ZM68.8219 255.678C68.7707 255.678 68.7366 255.666 68.7195 255.64C68.7024 255.606 68.7067 255.567 68.7323 255.525L69.5003 254.13C69.5259 254.07 69.5771 254.04 69.6539 254.04H70.2299C70.2811 254.04 70.311 254.057 70.3195 254.091C70.3366 254.117 70.3323 254.151 70.3067 254.194L69.4363 255.589C69.3936 255.649 69.3424 255.678 69.2827 255.678H68.8219ZM76.6032 258.174C76.7056 258.558 76.7568 259.087 76.7568 259.762C76.7568 260.461 76.6971 261.003 76.5776 261.387C76.4155 261.916 76.1339 262.334 75.7328 262.642C75.3317 262.949 74.8325 263.102 74.2352 263.102C73.8939 263.102 73.5824 263.034 73.3008 262.898C73.0192 262.761 72.7845 262.565 72.5968 262.309C72.5883 262.292 72.5755 262.287 72.5584 262.296C72.5413 262.296 72.5328 262.305 72.5328 262.322V262.872C72.5328 262.957 72.4901 263 72.4048 263H71.752C71.6667 263 71.624 262.957 71.624 262.872V254.168C71.624 254.083 71.6667 254.04 71.752 254.04H72.4048C72.4901 254.04 72.5328 254.083 72.5328 254.168V257.189C72.5328 257.206 72.5371 257.219 72.5456 257.227C72.5627 257.227 72.5797 257.219 72.5968 257.202C72.7845 256.954 73.0192 256.762 73.3008 256.626C73.5824 256.489 73.8939 256.421 74.2352 256.421C74.8411 256.421 75.3488 256.579 75.7584 256.894C76.168 257.202 76.4496 257.628 76.6032 258.174ZM75.6176 261.31C75.7029 261.131 75.7627 260.931 75.7968 260.709C75.8309 260.478 75.848 260.163 75.848 259.762C75.848 259.343 75.8224 259.019 75.7712 258.789C75.7285 258.55 75.656 258.337 75.5536 258.149C75.4427 257.867 75.2635 257.641 75.016 257.47C74.7685 257.3 74.4741 257.214 74.1328 257.214C73.8085 257.214 73.5269 257.304 73.288 257.483C73.0576 257.654 72.8912 257.884 72.7888 258.174C72.7035 258.354 72.6395 258.558 72.5968 258.789C72.5627 259.019 72.5456 259.343 72.5456 259.762C72.5456 260.171 72.5627 260.491 72.5968 260.722C72.6395 260.943 72.6992 261.144 72.776 261.323C72.8869 261.622 73.0576 261.861 73.288 262.04C73.5184 262.219 73.8043 262.309 74.1456 262.309C74.504 262.309 74.8112 262.219 75.0672 262.04C75.3317 261.861 75.5152 261.618 75.6176 261.31ZM81.2227 256.459C81.5043 256.459 81.7475 256.515 81.9523 256.626C82.0206 256.66 82.0462 256.715 82.0291 256.792L81.8883 257.419C81.8627 257.505 81.8072 257.53 81.7219 257.496C81.5768 257.436 81.4104 257.406 81.2227 257.406L81.0563 257.419C80.6126 257.436 80.2456 257.603 79.9555 257.918C79.6654 258.226 79.5203 258.618 79.5203 259.096V262.872C79.5203 262.957 79.4776 263 79.3923 263H78.7395C78.6542 263 78.6115 262.957 78.6115 262.872V256.651C78.6115 256.566 78.6542 256.523 78.7395 256.523H79.3923C79.4776 256.523 79.5203 256.566 79.5203 256.651V257.432C79.5203 257.458 79.5246 257.475 79.5331 257.483C79.5502 257.483 79.563 257.475 79.5715 257.458C79.7507 257.142 79.9768 256.899 80.2499 256.728C80.5315 256.549 80.8558 256.459 81.2227 256.459ZM83.8884 255.346C83.6836 255.346 83.5129 255.277 83.3764 255.141C83.2399 255.004 83.1716 254.834 83.1716 254.629C83.1716 254.415 83.2399 254.245 83.3764 254.117C83.5129 253.98 83.6836 253.912 83.8884 253.912C84.0932 253.912 84.2639 253.98 84.4004 254.117C84.5369 254.245 84.6052 254.415 84.6052 254.629C84.6052 254.834 84.5369 255.004 84.4004 255.141C84.2639 255.277 84.0932 255.346 83.8884 255.346ZM83.53 262.987C83.4447 262.987 83.402 262.945 83.402 262.859V256.638C83.402 256.553 83.4447 256.51 83.53 256.51H84.1828C84.2681 256.51 84.3108 256.553 84.3108 256.638V262.859C84.3108 262.945 84.2681 262.987 84.1828 262.987H83.53ZM89.0069 263.102C88.3925 263.102 87.8634 262.945 87.4197 262.629C86.976 262.313 86.6688 261.878 86.4981 261.323C86.3786 260.931 86.3189 260.406 86.3189 259.749C86.3189 259.092 86.3786 258.571 86.4981 258.187C86.6602 257.641 86.9632 257.21 87.4069 256.894C87.8506 256.579 88.3882 256.421 89.0197 256.421C89.6256 256.421 90.1461 256.579 90.5813 256.894C91.025 257.21 91.328 257.637 91.4901 258.174C91.6096 258.541 91.6693 259.066 91.6693 259.749C91.6693 260.44 91.6096 260.965 91.4901 261.323C91.328 261.878 91.025 262.313 90.5813 262.629C90.1461 262.945 89.6213 263.102 89.0069 263.102ZM89.0069 262.309C89.4165 262.309 89.7664 262.198 90.0565 261.976C90.3466 261.746 90.5429 261.438 90.6453 261.054C90.7221 260.747 90.7605 260.316 90.7605 259.762C90.7605 259.198 90.7264 258.767 90.6581 258.469C90.5557 258.085 90.3552 257.782 90.0565 257.56C89.7664 257.33 89.4122 257.214 88.9941 257.214C88.576 257.214 88.2218 257.33 87.9317 257.56C87.6416 257.782 87.4453 258.085 87.3429 258.469C87.2746 258.767 87.2405 259.198 87.2405 259.762C87.2405 260.325 87.2746 260.756 87.3429 261.054C87.4368 261.438 87.6288 261.746 87.9189 261.976C88.2176 262.198 88.5802 262.309 89.0069 262.309Z" fill="#5F5F5F"/>
<mask id="path-15-inside-1_9_783" fill="white">
<path d="M96 249.5H162.59V266.5H96V249.5Z"/>
</mask>
<path d="M162.59 265.5H96V267.5H162.59V265.5Z" fill="#FF3453" mask="url(#path-15-inside-1_9_783)"/>
<path d="M102.989 254.606C102.989 254.691 102.946 254.734 102.861 254.734H98.1632C98.1291 254.734 98.112 254.751 98.112 254.785V257.946C98.112 257.981 98.1291 257.998 98.1632 257.998H101.453C101.538 257.998 101.581 258.04 101.581 258.126V258.663C101.581 258.749 101.538 258.791 101.453 258.791H98.1632C98.1291 258.791 98.112 258.808 98.112 258.842V262.772C98.112 262.857 98.0693 262.9 97.984 262.9H97.3312C97.2459 262.9 97.2032 262.857 97.2032 262.772V254.068C97.2032 253.983 97.2459 253.94 97.3312 253.94H102.861C102.946 253.94 102.989 253.983 102.989 254.068V254.606ZM106.127 256.321C106.895 256.321 107.488 256.517 107.906 256.91C108.324 257.302 108.533 257.823 108.533 258.471V262.772C108.533 262.857 108.49 262.9 108.405 262.9H107.752C107.667 262.9 107.624 262.857 107.624 262.772V262.247C107.624 262.23 107.616 262.217 107.599 262.209C107.59 262.2 107.577 262.205 107.56 262.222C107.347 262.478 107.069 262.674 106.728 262.81C106.387 262.938 106.007 263.002 105.589 263.002C104.983 263.002 104.475 262.849 104.066 262.542C103.656 262.234 103.451 261.765 103.451 261.134C103.451 260.494 103.682 259.99 104.143 259.623C104.612 259.248 105.26 259.06 106.088 259.06H107.573C107.607 259.06 107.624 259.043 107.624 259.009V258.522C107.624 258.087 107.5 257.746 107.253 257.498C107.014 257.242 106.639 257.114 106.127 257.114C105.717 257.114 105.384 257.195 105.128 257.358C104.872 257.511 104.714 257.729 104.655 258.01C104.629 258.096 104.578 258.134 104.501 258.126L103.81 258.036C103.716 258.019 103.677 257.985 103.695 257.934C103.763 257.456 104.019 257.067 104.463 256.769C104.906 256.47 105.461 256.321 106.127 256.321ZM105.768 262.222C106.272 262.222 106.707 262.098 107.074 261.85C107.441 261.594 107.624 261.253 107.624 260.826V259.828C107.624 259.794 107.607 259.777 107.573 259.777H106.229C105.666 259.777 105.213 259.892 104.872 260.122C104.531 260.353 104.36 260.673 104.36 261.082C104.36 261.458 104.488 261.744 104.744 261.94C105.009 262.128 105.35 262.222 105.768 262.222ZM109.963 262.9C109.878 262.9 109.835 262.857 109.835 262.772V262.158C109.835 262.098 109.852 262.047 109.886 262.004L113.522 257.319C113.539 257.302 113.543 257.289 113.534 257.281C113.526 257.264 113.513 257.255 113.496 257.255H110.014C109.929 257.255 109.886 257.213 109.886 257.127V256.551C109.886 256.466 109.929 256.423 110.014 256.423H114.507C114.593 256.423 114.635 256.466 114.635 256.551V257.166C114.635 257.225 114.618 257.277 114.584 257.319L110.91 262.004C110.893 262.021 110.889 262.038 110.898 262.055C110.906 262.064 110.919 262.068 110.936 262.068H114.507C114.593 262.068 114.635 262.111 114.635 262.196V262.772C114.635 262.857 114.593 262.9 114.507 262.9H109.963ZM121.09 258.574C121.125 258.813 121.142 259.111 121.142 259.47V259.879C121.142 259.965 121.099 260.007 121.014 260.007H116.879C116.845 260.007 116.828 260.024 116.828 260.058C116.845 260.528 116.871 260.831 116.905 260.967C116.999 261.351 117.199 261.654 117.506 261.876C117.814 262.098 118.206 262.209 118.684 262.209C119.042 262.209 119.358 262.128 119.631 261.966C119.904 261.803 120.118 261.573 120.271 261.274C120.322 261.198 120.382 261.181 120.45 261.223L120.95 261.518C121.018 261.56 121.035 261.62 121.001 261.697C120.787 262.106 120.467 262.431 120.041 262.67C119.614 262.9 119.123 263.015 118.569 263.015C117.963 263.007 117.455 262.862 117.046 262.58C116.636 262.298 116.342 261.906 116.162 261.402C116.009 260.993 115.932 260.404 115.932 259.636C115.932 259.278 115.936 258.987 115.945 258.766C115.962 258.535 115.996 258.33 116.047 258.151C116.192 257.597 116.482 257.153 116.918 256.82C117.361 256.487 117.895 256.321 118.518 256.321C119.294 256.321 119.891 256.517 120.31 256.91C120.728 257.302 120.988 257.857 121.09 258.574ZM118.518 257.114C118.099 257.114 117.75 257.225 117.468 257.447C117.195 257.661 117.016 257.951 116.93 258.318C116.879 258.497 116.845 258.787 116.828 259.188C116.828 259.222 116.845 259.239 116.879 259.239H120.194C120.229 259.239 120.246 259.222 120.246 259.188C120.229 258.804 120.203 258.531 120.169 258.369C120.075 257.985 119.883 257.682 119.593 257.46C119.311 257.23 118.953 257.114 118.518 257.114ZM125.56 256.359C125.842 256.359 126.085 256.415 126.29 256.526C126.358 256.56 126.384 256.615 126.367 256.692L126.226 257.319C126.2 257.405 126.145 257.43 126.059 257.396C125.914 257.336 125.748 257.306 125.56 257.306L125.394 257.319C124.95 257.336 124.583 257.503 124.293 257.818C124.003 258.126 123.858 258.518 123.858 258.996V262.772C123.858 262.857 123.815 262.9 123.73 262.9H123.077C122.992 262.9 122.949 262.857 122.949 262.772V256.551C122.949 256.466 122.992 256.423 123.077 256.423H123.73C123.815 256.423 123.858 256.466 123.858 256.551V257.332C123.858 257.358 123.862 257.375 123.871 257.383C123.888 257.383 123.9 257.375 123.909 257.358C124.088 257.042 124.314 256.799 124.587 256.628C124.869 256.449 125.193 256.359 125.56 256.359ZM132.299 262.964C131.821 262.964 131.394 262.887 131.019 262.734C130.652 262.58 130.366 262.375 130.161 262.119C129.965 261.863 129.867 261.577 129.867 261.262V261.108C129.867 261.023 129.909 260.98 129.995 260.98H130.609C130.695 260.98 130.737 261.023 130.737 261.108V261.21C130.737 261.492 130.882 261.739 131.172 261.953C131.471 262.158 131.842 262.26 132.286 262.26C132.73 262.26 133.088 262.162 133.361 261.966C133.634 261.761 133.771 261.505 133.771 261.198C133.771 260.984 133.698 260.809 133.553 260.673C133.417 260.536 133.25 260.43 133.054 260.353C132.866 260.276 132.572 260.178 132.171 260.058C131.693 259.922 131.3 259.785 130.993 259.649C130.686 259.512 130.426 259.325 130.212 259.086C130.008 258.838 129.905 258.527 129.905 258.151C129.905 257.605 130.119 257.17 130.545 256.846C130.972 256.521 131.535 256.359 132.235 256.359C132.704 256.359 133.118 256.436 133.476 256.59C133.843 256.743 134.125 256.957 134.321 257.23C134.517 257.494 134.616 257.793 134.616 258.126V258.164C134.616 258.249 134.573 258.292 134.488 258.292H133.886C133.801 258.292 133.758 258.249 133.758 258.164V258.126C133.758 257.835 133.617 257.592 133.336 257.396C133.063 257.2 132.691 257.102 132.222 257.102C131.787 257.102 131.437 257.191 131.172 257.37C130.908 257.541 130.776 257.78 130.776 258.087C130.776 258.377 130.904 258.599 131.16 258.753C131.416 258.906 131.812 259.06 132.35 259.214C132.845 259.359 133.246 259.495 133.553 259.623C133.86 259.751 134.125 259.939 134.347 260.186C134.569 260.425 134.68 260.741 134.68 261.134C134.68 261.688 134.462 262.132 134.027 262.465C133.592 262.798 133.016 262.964 132.299 262.964ZM138.577 256.321C139.345 256.321 139.938 256.517 140.356 256.91C140.774 257.302 140.983 257.823 140.983 258.471V262.772C140.983 262.857 140.94 262.9 140.855 262.9H140.202C140.117 262.9 140.074 262.857 140.074 262.772V262.247C140.074 262.23 140.066 262.217 140.049 262.209C140.04 262.2 140.027 262.205 140.01 262.222C139.797 262.478 139.519 262.674 139.178 262.81C138.837 262.938 138.457 263.002 138.039 263.002C137.433 263.002 136.925 262.849 136.516 262.542C136.106 262.234 135.901 261.765 135.901 261.134C135.901 260.494 136.132 259.99 136.593 259.623C137.062 259.248 137.71 259.06 138.538 259.06H140.023C140.057 259.06 140.074 259.043 140.074 259.009V258.522C140.074 258.087 139.95 257.746 139.703 257.498C139.464 257.242 139.089 257.114 138.577 257.114C138.167 257.114 137.834 257.195 137.578 257.358C137.322 257.511 137.164 257.729 137.105 258.01C137.079 258.096 137.028 258.134 136.951 258.126L136.26 258.036C136.166 258.019 136.127 257.985 136.145 257.934C136.213 257.456 136.469 257.067 136.913 256.769C137.356 256.47 137.911 256.321 138.577 256.321ZM138.218 262.222C138.722 262.222 139.157 262.098 139.524 261.85C139.891 261.594 140.074 261.253 140.074 260.826V259.828C140.074 259.794 140.057 259.777 140.023 259.777H138.679C138.116 259.777 137.663 259.892 137.322 260.122C136.981 260.353 136.81 260.673 136.81 261.082C136.81 261.458 136.938 261.744 137.194 261.94C137.459 262.128 137.8 262.222 138.218 262.222ZM146.893 256.551C146.893 256.466 146.936 256.423 147.021 256.423H147.674C147.759 256.423 147.802 256.466 147.802 256.551V265.255C147.802 265.341 147.759 265.383 147.674 265.383H147.021C146.936 265.383 146.893 265.341 146.893 265.255V262.247C146.893 262.23 146.885 262.222 146.868 262.222C146.859 262.213 146.846 262.217 146.829 262.234C146.641 262.482 146.407 262.674 146.125 262.81C145.844 262.938 145.536 263.002 145.204 263.002C144.598 263.002 144.09 262.849 143.68 262.542C143.271 262.226 142.989 261.795 142.836 261.249C142.733 260.899 142.682 260.37 142.682 259.662C142.682 258.962 142.742 258.42 142.861 258.036C143.015 257.507 143.292 257.089 143.693 256.782C144.103 256.474 144.606 256.321 145.204 256.321C145.545 256.321 145.852 256.389 146.125 256.526C146.407 256.662 146.641 256.854 146.829 257.102C146.846 257.119 146.859 257.127 146.868 257.127C146.885 257.119 146.893 257.106 146.893 257.089V256.551ZM146.65 261.249C146.735 261.07 146.795 260.865 146.829 260.634C146.863 260.395 146.88 260.071 146.88 259.662C146.88 259.252 146.863 258.932 146.829 258.702C146.795 258.471 146.74 258.271 146.663 258.1C146.552 257.801 146.381 257.562 146.151 257.383C145.92 257.204 145.635 257.114 145.293 257.114C144.935 257.114 144.623 257.204 144.359 257.383C144.103 257.562 143.924 257.806 143.821 258.113C143.736 258.292 143.676 258.497 143.642 258.727C143.608 258.949 143.591 259.261 143.591 259.662C143.591 260.08 143.612 260.408 143.655 260.647C143.706 260.878 143.783 261.087 143.885 261.274C143.996 261.556 144.175 261.782 144.423 261.953C144.67 262.123 144.965 262.209 145.306 262.209C145.63 262.209 145.908 262.123 146.138 261.953C146.377 261.774 146.548 261.539 146.65 261.249ZM153.853 256.551C153.853 256.466 153.896 256.423 153.981 256.423H154.634C154.719 256.423 154.762 256.466 154.762 256.551V262.772C154.762 262.857 154.719 262.9 154.634 262.9H153.981C153.896 262.9 153.853 262.857 153.853 262.772V262.222C153.853 262.205 153.845 262.192 153.828 262.183C153.811 262.175 153.798 262.179 153.789 262.196C153.431 262.725 152.863 262.99 152.087 262.99C151.677 262.99 151.298 262.909 150.948 262.746C150.606 262.576 150.333 262.333 150.128 262.017C149.932 261.701 149.834 261.321 149.834 260.878V256.551C149.834 256.466 149.877 256.423 149.962 256.423H150.615C150.7 256.423 150.743 256.466 150.743 256.551V260.609C150.743 261.095 150.879 261.483 151.152 261.774C151.426 262.055 151.797 262.196 152.266 262.196C152.752 262.196 153.136 262.051 153.418 261.761C153.708 261.471 153.853 261.087 153.853 260.609V256.551ZM161.765 258.574C161.8 258.813 161.817 259.111 161.817 259.47V259.879C161.817 259.965 161.774 260.007 161.689 260.007H157.554C157.52 260.007 157.503 260.024 157.503 260.058C157.52 260.528 157.546 260.831 157.58 260.967C157.674 261.351 157.874 261.654 158.181 261.876C158.489 262.098 158.881 262.209 159.359 262.209C159.717 262.209 160.033 262.128 160.306 261.966C160.579 261.803 160.793 261.573 160.946 261.274C160.997 261.198 161.057 261.181 161.125 261.223L161.625 261.518C161.693 261.56 161.71 261.62 161.676 261.697C161.462 262.106 161.142 262.431 160.716 262.67C160.289 262.9 159.798 263.015 159.244 263.015C158.638 263.007 158.13 262.862 157.721 262.58C157.311 262.298 157.017 261.906 156.837 261.402C156.684 260.993 156.607 260.404 156.607 259.636C156.607 259.278 156.611 258.987 156.62 258.766C156.637 258.535 156.671 258.33 156.722 258.151C156.867 257.597 157.157 257.153 157.593 256.82C158.036 256.487 158.57 256.321 159.193 256.321C159.969 256.321 160.566 256.517 160.985 256.91C161.403 257.302 161.663 257.857 161.765 258.574ZM159.193 257.114C158.774 257.114 158.425 257.225 158.143 257.447C157.87 257.661 157.691 257.951 157.605 258.318C157.554 258.497 157.52 258.787 157.503 259.188C157.503 259.222 157.52 259.239 157.554 259.239H160.869C160.904 259.239 160.921 259.222 160.921 259.188C160.904 258.804 160.878 258.531 160.844 258.369C160.75 257.985 160.558 257.682 160.268 257.46C159.986 257.23 159.628 257.114 159.193 257.114Z" fill="#FF3453"/>
<a href="https://dojobe.com/settings/withdrawals">
<rect fill="black" fill-opacity="0" y="1.92" width="66.5974" height="15.36"/>
</a>
<path d="M301.828 199.125C308.117 199.125 313.283 204.066 313.283 209.906V267.406C313.283 273.471 308.117 278.188 301.828 278.188H212.658C204.572 278.188 198.283 271.898 198.283 263.812V191.938C198.283 184.076 204.572 177.562 212.658 177.562H295.314C301.154 177.562 306.095 182.504 306.095 188.344C306.095 190.365 304.298 191.938 302.501 191.938H216.251C214.23 191.938 212.658 193.734 212.658 195.531C212.658 197.553 214.23 199.125 216.251 199.125H301.828ZM291.72 245.844C295.539 245.844 298.908 242.699 298.908 238.656C298.908 234.838 295.539 231.469 291.72 231.469C287.677 231.469 284.533 234.838 284.533 238.656C284.533 242.699 287.677 245.844 291.72 245.844Z" fill="black" fill-opacity="0.02"/>
</g>
</g>
<g filter="url(#filter2_d_9_783)">
<rect x="19" y="307" width="317" height="126" rx="4" fill="#F5F5F5" shape-rendering="crispEdges"/>
<rect x="19.5" y="307.5" width="316" height="125" rx="3.5" stroke="#6F6F6F" stroke-opacity="0.125" shape-rendering="crispEdges"/>
<g clip-path="url(#clip3_9_783)">
<rect x="40" y="330" width="52" height="48" rx="17.5" fill="#FF3453" fill-opacity="0.17"/>
<path d="M55.5 352.5C53.8125 352.5 52.5 351.188 52.5 349.5C52.5 347.859 53.8125 346.5 55.5 346.5C57.1406 346.5 58.5 347.859 58.5 349.5C58.5 351.188 57.1406 352.5 55.5 352.5ZM76.5 352.5C74.8125 352.5 73.5 351.188 73.5 349.5C73.5 347.859 74.8125 346.5 76.5 346.5C78.1406 346.5 79.5 347.859 79.5 349.5C79.5 351.188 78.1406 352.5 76.5 352.5ZM78 354C79.6406 354 81 355.359 81 357V358.5C81 359.344 80.2969 360 79.5 360H76.4062C76.0781 357.797 74.7656 355.922 72.8438 354.891C73.4062 354.375 74.1562 354 75 354H78ZM66 354C63.0938 354 60.75 351.656 60.75 348.75C60.75 345.891 63.0938 343.5 66 343.5C68.8594 343.5 71.25 345.891 71.25 348.75C71.25 351.656 68.8594 354 66 354ZM69.5625 355.5C72.5625 355.5 75 357.938 75 360.938V362.25C75 363.516 73.9688 364.5 72.75 364.5H59.25C57.9844 364.5 57 363.516 57 362.25V360.938C57 357.938 59.3906 355.5 62.3906 355.5H62.7656C63.75 355.969 64.8281 356.25 66 356.25C67.125 356.25 68.2031 355.969 69.1875 355.5H69.5625ZM59.1094 354.891C57.1875 355.922 55.875 357.797 55.5469 360H52.5C51.6562 360 51 359.344 51 358.5V357C51 355.359 52.3125 354 54 354H57C57.7969 354 58.5469 354.375 59.1094 354.891Z" fill="#FF3453"/>
<path d="M111.122 359.948C111.09 359.98 111.082 360.012 111.098 360.044C111.114 360.076 111.146 360.092 111.194 360.092H117.314C117.394 360.092 117.458 360.124 117.506 360.188C117.57 360.236 117.602 360.3 117.602 360.38V363.212C117.602 363.292 117.57 363.364 117.506 363.428C117.458 363.476 117.394 363.5 117.314 363.5H106.058C105.978 363.5 105.906 363.476 105.842 363.428C105.794 363.364 105.77 363.292 105.77 363.212V360.548C105.77 360.404 105.818 360.284 105.914 360.188C106.874 359.292 108.146 358.004 109.73 356.324L111.17 354.812C112.626 353.308 113.354 352.212 113.354 351.524C113.354 351.06 113.178 350.676 112.826 350.372C112.49 350.068 112.05 349.916 111.506 349.916C110.962 349.916 110.522 350.068 110.186 350.372C109.85 350.676 109.682 351.076 109.682 351.572V352.148C109.682 352.228 109.65 352.3 109.586 352.364C109.538 352.412 109.474 352.436 109.394 352.436H105.938C105.858 352.436 105.786 352.412 105.722 352.364C105.674 352.3 105.65 352.228 105.65 352.148V350.948C105.714 350.052 106.01 349.268 106.538 348.596C107.066 347.924 107.762 347.412 108.626 347.06C109.49 346.692 110.45 346.508 111.506 346.508C112.69 346.508 113.722 346.732 114.602 347.18C115.498 347.612 116.178 348.204 116.642 348.956C117.122 349.708 117.362 350.54 117.362 351.452C117.362 352.108 117.202 352.772 116.882 353.444C116.562 354.116 116.082 354.828 115.442 355.58C114.994 356.124 114.49 356.676 113.93 357.236C113.37 357.796 112.594 358.548 111.602 359.492L111.122 359.948ZM130.547 355.748C130.819 356.516 130.955 357.284 130.955 358.052C130.955 358.852 130.811 359.62 130.523 360.356C130.107 361.348 129.411 362.148 128.435 362.756C127.475 363.348 126.363 363.644 125.099 363.644C123.835 363.644 122.723 363.356 121.763 362.78C120.803 362.188 120.107 361.388 119.675 360.38C119.499 359.932 119.371 359.452 119.291 358.94V358.892C119.291 358.716 119.387 358.628 119.579 358.628H123.083C123.227 358.628 123.339 358.708 123.419 358.868C123.435 358.964 123.491 359.092 123.587 359.252C123.891 359.908 124.379 360.236 125.051 360.236C125.387 360.236 125.691 360.156 125.963 359.996C126.235 359.82 126.451 359.572 126.611 359.252C126.787 358.932 126.875 358.532 126.875 358.052C126.875 357.604 126.795 357.22 126.635 356.9C126.523 356.612 126.331 356.388 126.059 356.228C125.803 356.052 125.507 355.964 125.171 355.964C124.803 355.964 124.459 356.052 124.139 356.228C123.819 356.404 123.603 356.628 123.491 356.9C123.443 357.06 123.339 357.14 123.179 357.14H119.603C119.523 357.14 119.451 357.116 119.387 357.068C119.339 357.004 119.315 356.932 119.315 356.852V346.988C119.315 346.908 119.339 346.844 119.387 346.796C119.451 346.732 119.523 346.7 119.603 346.7H130.115C130.195 346.7 130.259 346.732 130.307 346.796C130.371 346.844 130.403 346.908 130.403 346.988V349.82C130.403 349.9 130.371 349.972 130.307 350.036C130.259 350.084 130.195 350.108 130.115 350.108H123.419C123.339 350.108 123.299 350.148 123.299 350.228V353.036C123.299 353.084 123.315 353.116 123.347 353.132C123.379 353.148 123.411 353.14 123.443 353.108C124.099 352.724 124.843 352.532 125.675 352.532C126.811 352.532 127.811 352.82 128.675 353.396C129.539 353.972 130.163 354.756 130.547 355.748ZM137.888 359.948C137.856 359.98 137.848 360.012 137.864 360.044C137.88 360.076 137.912 360.092 137.96 360.092H144.08C144.16 360.092 144.224 360.124 144.272 360.188C144.336 360.236 144.368 360.3 144.368 360.38V363.212C144.368 363.292 144.336 363.364 144.272 363.428C144.224 363.476 144.16 363.5 144.08 363.5H132.824C132.744 363.5 132.672 363.476 132.608 363.428C132.56 363.364 132.536 363.292 132.536 363.212V360.548C132.536 360.404 132.584 360.284 132.68 360.188C133.64 359.292 134.912 358.004 136.496 356.324L137.936 354.812C139.392 353.308 140.12 352.212 140.12 351.524C140.12 351.06 139.944 350.676 139.592 350.372C139.256 350.068 138.816 349.916 138.272 349.916C137.728 349.916 137.288 350.068 136.952 350.372C136.616 350.676 136.448 351.076 136.448 351.572V352.148C136.448 352.228 136.416 352.3 136.352 352.364C136.304 352.412 136.24 352.436 136.16 352.436H132.704C132.624 352.436 132.552 352.412 132.488 352.364C132.44 352.3 132.416 352.228 132.416 352.148V350.948C132.48 350.052 132.776 349.268 133.304 348.596C133.832 347.924 134.528 347.412 135.392 347.06C136.256 346.692 137.216 346.508 138.272 346.508C139.456 346.508 140.488 346.732 141.368 347.18C142.264 347.612 142.944 348.204 143.408 348.956C143.888 349.708 144.128 350.54 144.128 351.452C144.128 352.108 143.968 352.772 143.648 353.444C143.328 354.116 142.848 354.828 142.208 355.58C141.76 356.124 141.256 356.676 140.696 357.236C140.136 357.796 139.36 358.548 138.368 359.492L137.888 359.948Z" fill="#5F5F5F"/>
<path d="M46.5152 404.4C46.4384 404.4 46.3872 404.366 46.3616 404.298L45.8496 402.685C45.8411 402.659 45.824 402.646 45.7984 402.646H41.9712C41.9456 402.646 41.9285 402.659 41.92 402.685L41.408 404.298C41.3824 404.366 41.3312 404.4 41.2544 404.4H40.5632C40.4693 404.4 40.4352 404.353 40.4608 404.259L43.2896 395.542C43.3152 395.474 43.3664 395.44 43.4432 395.44H44.3136C44.3904 395.44 44.4416 395.474 44.4672 395.542L47.3088 404.259L47.3216 404.31C47.3216 404.37 47.2832 404.4 47.2064 404.4H46.5152ZM42.176 401.84C42.1675 401.857 42.1675 401.874 42.176 401.891C42.1931 401.9 42.2101 401.904 42.2272 401.904H45.5296C45.5467 401.904 45.5595 401.9 45.568 401.891C45.5851 401.874 45.5893 401.857 45.5808 401.84L43.9168 396.618C43.9083 396.601 43.8955 396.592 43.8784 396.592C43.8613 396.592 43.8485 396.601 43.84 396.618L42.176 401.84ZM50.9238 404.464C50.4459 404.464 50.0193 404.387 49.6438 404.234C49.2769 404.08 48.991 403.875 48.7862 403.619C48.5899 403.363 48.4918 403.077 48.4918 402.762V402.608C48.4918 402.523 48.5345 402.48 48.6198 402.48H49.2342C49.3195 402.48 49.3622 402.523 49.3622 402.608V402.71C49.3622 402.992 49.5073 403.239 49.7974 403.453C50.0961 403.658 50.4673 403.76 50.911 403.76C51.3547 403.76 51.7131 403.662 51.9862 403.466C52.2593 403.261 52.3958 403.005 52.3958 402.698C52.3958 402.484 52.3233 402.309 52.1782 402.173C52.0417 402.036 51.8753 401.93 51.679 401.853C51.4913 401.776 51.1969 401.678 50.7958 401.558C50.3179 401.422 49.9254 401.285 49.6182 401.149C49.311 401.012 49.0507 400.825 48.8374 400.586C48.6326 400.338 48.5302 400.027 48.5302 399.651C48.5302 399.105 48.7435 398.67 49.1702 398.346C49.5969 398.021 50.1601 397.859 50.8598 397.859C51.3291 397.859 51.743 397.936 52.1014 398.09C52.4683 398.243 52.7499 398.457 52.9462 398.73C53.1425 398.994 53.2406 399.293 53.2406 399.626V399.664C53.2406 399.749 53.1979 399.792 53.1126 399.792H52.511C52.4257 399.792 52.383 399.749 52.383 399.664V399.626C52.383 399.335 52.2422 399.092 51.9606 398.896C51.6875 398.7 51.3163 398.602 50.847 398.602C50.4118 398.602 50.0619 398.691 49.7974 398.87C49.5329 399.041 49.4006 399.28 49.4006 399.587C49.4006 399.877 49.5286 400.099 49.7846 400.253C50.0406 400.406 50.4374 400.56 50.975 400.714C51.4699 400.859 51.871 400.995 52.1782 401.123C52.4854 401.251 52.7499 401.439 52.9718 401.686C53.1937 401.925 53.3046 402.241 53.3046 402.634C53.3046 403.188 53.087 403.632 52.6518 403.965C52.2166 404.298 51.6406 404.464 50.9238 404.464ZM56.8988 404.464C56.4209 404.464 55.9943 404.387 55.6188 404.234C55.2519 404.08 54.966 403.875 54.7612 403.619C54.5649 403.363 54.4668 403.077 54.4668 402.762V402.608C54.4668 402.523 54.5095 402.48 54.5948 402.48H55.2092C55.2945 402.48 55.3372 402.523 55.3372 402.608V402.71C55.3372 402.992 55.4823 403.239 55.7724 403.453C56.0711 403.658 56.4423 403.76 56.886 403.76C57.3297 403.76 57.6881 403.662 57.9612 403.466C58.2343 403.261 58.3708 403.005 58.3708 402.698C58.3708 402.484 58.2983 402.309 58.1532 402.173C58.0167 402.036 57.8503 401.93 57.654 401.853C57.4663 401.776 57.1719 401.678 56.7708 401.558C56.2929 401.422 55.9004 401.285 55.5932 401.149C55.286 401.012 55.0257 400.825 54.8124 400.586C54.6076 400.338 54.5052 400.027 54.5052 399.651C54.5052 399.105 54.7185 398.67 55.1452 398.346C55.5719 398.021 56.1351 397.859 56.8348 397.859C57.3041 397.859 57.718 397.936 58.0764 398.09C58.4433 398.243 58.7249 398.457 58.9212 398.73C59.1175 398.994 59.2156 399.293 59.2156 399.626V399.664C59.2156 399.749 59.1729 399.792 59.0876 399.792H58.486C58.4007 399.792 58.358 399.749 58.358 399.664V399.626C58.358 399.335 58.2172 399.092 57.9356 398.896C57.6625 398.7 57.2913 398.602 56.822 398.602C56.3868 398.602 56.0369 398.691 55.7724 398.87C55.5079 399.041 55.3756 399.28 55.3756 399.587C55.3756 399.877 55.5036 400.099 55.7596 400.253C56.0156 400.406 56.4124 400.56 56.95 400.714C57.4449 400.859 57.846 400.995 58.1532 401.123C58.4604 401.251 58.7249 401.439 58.9468 401.686C59.1687 401.925 59.2796 402.241 59.2796 402.634C59.2796 403.188 59.062 403.632 58.6268 403.965C58.1916 404.298 57.6156 404.464 56.8988 404.464ZM61.5509 396.746C61.3461 396.746 61.1754 396.677 61.0389 396.541C60.9024 396.404 60.8341 396.234 60.8341 396.029C60.8341 395.815 60.9024 395.645 61.0389 395.517C61.1754 395.38 61.3461 395.312 61.5509 395.312C61.7557 395.312 61.9264 395.38 62.0629 395.517C62.1994 395.645 62.2677 395.815 62.2677 396.029C62.2677 396.234 62.1994 396.404 62.0629 396.541C61.9264 396.677 61.7557 396.746 61.5509 396.746ZM61.1925 404.387C61.1072 404.387 61.0645 404.345 61.0645 404.259V398.038C61.0645 397.953 61.1072 397.91 61.1925 397.91H61.8453C61.9306 397.91 61.9733 397.953 61.9733 398.038V404.259C61.9733 404.345 61.9306 404.387 61.8453 404.387H61.1925ZM66.887 397.834C67.5697 397.834 68.1115 398.034 68.5126 398.435C68.9222 398.836 69.127 399.374 69.127 400.048V404.272C69.127 404.357 69.0843 404.4 68.999 404.4H68.3462C68.2609 404.4 68.2182 404.357 68.2182 404.272V400.227C68.2182 399.758 68.0731 399.374 67.783 399.075C67.5014 398.777 67.1345 398.627 66.6822 398.627C66.2129 398.627 65.8331 398.772 65.543 399.062C65.2529 399.353 65.1078 399.732 65.1078 400.202V404.272C65.1078 404.357 65.0651 404.4 64.9798 404.4H64.327C64.2417 404.4 64.199 404.357 64.199 404.272V398.051C64.199 397.966 64.2417 397.923 64.327 397.923H64.9798C65.0651 397.923 65.1078 397.966 65.1078 398.051V398.602C65.1078 398.619 65.1121 398.631 65.1206 398.64C65.1377 398.649 65.1505 398.644 65.159 398.627C65.5345 398.098 66.1105 397.834 66.887 397.834ZM73.339 397.821C74.107 397.821 74.7001 398.017 75.1182 398.41C75.5363 398.802 75.7454 399.323 75.7454 399.971V404.272C75.7454 404.357 75.7027 404.4 75.6174 404.4H74.9646C74.8793 404.4 74.8366 404.357 74.8366 404.272V403.747C74.8366 403.73 74.8281 403.717 74.811 403.709C74.8025 403.7 74.7897 403.705 74.7726 403.722C74.5593 403.978 74.2819 404.174 73.9406 404.31C73.5993 404.438 73.2195 404.502 72.8014 404.502C72.1955 404.502 71.6878 404.349 71.2782 404.042C70.8686 403.734 70.6638 403.265 70.6638 402.634C70.6638 401.994 70.8942 401.49 71.355 401.123C71.8243 400.748 72.4729 400.56 73.3006 400.56H74.7854C74.8195 400.56 74.8366 400.543 74.8366 400.509V400.022C74.8366 399.587 74.7129 399.246 74.4654 398.998C74.2265 398.742 73.851 398.614 73.339 398.614C72.9294 398.614 72.5966 398.695 72.3406 398.858C72.0846 399.011 71.9267 399.229 71.867 399.51C71.8414 399.596 71.7902 399.634 71.7134 399.626L71.0222 399.536C70.9283 399.519 70.8899 399.485 70.907 399.434C70.9753 398.956 71.2313 398.567 71.675 398.269C72.1187 397.97 72.6734 397.821 73.339 397.821ZM72.9806 403.722C73.4841 403.722 73.9193 403.598 74.2862 403.35C74.6531 403.094 74.8366 402.753 74.8366 402.326V401.328C74.8366 401.294 74.8195 401.277 74.7854 401.277H73.4414C72.8782 401.277 72.4259 401.392 72.0846 401.622C71.7433 401.853 71.5726 402.173 71.5726 402.582C71.5726 402.958 71.7006 403.244 71.9566 403.44C72.2211 403.628 72.5625 403.722 72.9806 403.722ZM80.4921 398.55C80.4921 398.636 80.4494 398.678 80.3641 398.678H78.9177C78.8836 398.678 78.8665 398.695 78.8665 398.73V402.506C78.8665 402.915 78.9561 403.205 79.1353 403.376C79.323 403.538 79.6132 403.619 80.0057 403.619H80.3257C80.411 403.619 80.4537 403.662 80.4537 403.747V404.272C80.4537 404.357 80.411 404.4 80.3257 404.4C80.2233 404.409 80.0654 404.413 79.8521 404.413C79.2377 404.413 78.7726 404.298 78.4569 404.067C78.1412 403.837 77.9833 403.41 77.9833 402.787V398.73C77.9833 398.695 77.9662 398.678 77.9321 398.678H77.1513C77.066 398.678 77.0233 398.636 77.0233 398.55V398.051C77.0233 397.966 77.066 397.923 77.1513 397.923H77.9321C77.9662 397.923 77.9833 397.906 77.9833 397.872V396.387C77.9833 396.302 78.026 396.259 78.1113 396.259H78.7385C78.8238 396.259 78.8665 396.302 78.8665 396.387V397.872C78.8665 397.906 78.8836 397.923 78.9177 397.923H80.3641C80.4494 397.923 80.4921 397.966 80.4921 398.051V398.55ZM86.1658 398.051C86.1658 397.966 86.2085 397.923 86.2938 397.923H86.9466C87.0319 397.923 87.0746 397.966 87.0746 398.051V404.272C87.0746 404.357 87.0319 404.4 86.9466 404.4H86.2938C86.2085 404.4 86.1658 404.357 86.1658 404.272V403.722C86.1658 403.705 86.1573 403.692 86.1402 403.683C86.1231 403.675 86.1103 403.679 86.1018 403.696C85.7434 404.225 85.1759 404.49 84.3994 404.49C83.9898 404.49 83.6101 404.409 83.2602 404.246C82.9189 404.076 82.6458 403.833 82.441 403.517C82.2447 403.201 82.1466 402.821 82.1466 402.378V398.051C82.1466 397.966 82.1893 397.923 82.2746 397.923H82.9274C83.0127 397.923 83.0554 397.966 83.0554 398.051V402.109C83.0554 402.595 83.1919 402.983 83.465 403.274C83.7381 403.555 84.1093 403.696 84.5786 403.696C85.065 403.696 85.449 403.551 85.7306 403.261C86.0207 402.971 86.1658 402.587 86.1658 402.109V398.051ZM91.7227 397.859C92.0043 397.859 92.2475 397.915 92.4523 398.026C92.5206 398.06 92.5462 398.115 92.5291 398.192L92.3883 398.819C92.3627 398.905 92.3072 398.93 92.2219 398.896C92.0768 398.836 91.9104 398.806 91.7227 398.806L91.5563 398.819C91.1126 398.836 90.7456 399.003 90.4555 399.318C90.1654 399.626 90.0203 400.018 90.0203 400.496V404.272C90.0203 404.357 89.9776 404.4 89.8923 404.4H89.2395C89.1542 404.4 89.1115 404.357 89.1115 404.272V398.051C89.1115 397.966 89.1542 397.923 89.2395 397.923H89.8923C89.9776 397.923 90.0203 397.966 90.0203 398.051V398.832C90.0203 398.858 90.0246 398.875 90.0331 398.883C90.0502 398.883 90.063 398.875 90.0715 398.858C90.2507 398.542 90.4768 398.299 90.7499 398.128C91.0315 397.949 91.3558 397.859 91.7227 397.859ZM95.989 397.821C96.757 397.821 97.3501 398.017 97.7682 398.41C98.1863 398.802 98.3954 399.323 98.3954 399.971V404.272C98.3954 404.357 98.3527 404.4 98.2674 404.4H97.6146C97.5293 404.4 97.4866 404.357 97.4866 404.272V403.747C97.4866 403.73 97.4781 403.717 97.461 403.709C97.4525 403.7 97.4397 403.705 97.4226 403.722C97.2093 403.978 96.9319 404.174 96.5906 404.31C96.2493 404.438 95.8695 404.502 95.4514 404.502C94.8455 404.502 94.3378 404.349 93.9282 404.042C93.5186 403.734 93.3138 403.265 93.3138 402.634C93.3138 401.994 93.5442 401.49 94.005 401.123C94.4743 400.748 95.1229 400.56 95.9506 400.56H97.4354C97.4695 400.56 97.4866 400.543 97.4866 400.509V400.022C97.4866 399.587 97.3629 399.246 97.1154 398.998C96.8765 398.742 96.501 398.614 95.989 398.614C95.5794 398.614 95.2466 398.695 94.9906 398.858C94.7346 399.011 94.5767 399.229 94.517 399.51C94.4914 399.596 94.4402 399.634 94.3634 399.626L93.6722 399.536C93.5783 399.519 93.5399 399.485 93.557 399.434C93.6253 398.956 93.8813 398.567 94.325 398.269C94.7687 397.97 95.3234 397.821 95.989 397.821ZM95.6306 403.722C96.1341 403.722 96.5693 403.598 96.9362 403.35C97.3031 403.094 97.4866 402.753 97.4866 402.326V401.328C97.4866 401.294 97.4695 401.277 97.4354 401.277H96.0914C95.5282 401.277 95.0759 401.392 94.7346 401.622C94.3933 401.853 94.2226 402.173 94.2226 402.582C94.2226 402.958 94.3506 403.244 94.6066 403.44C94.8711 403.628 95.2125 403.722 95.6306 403.722ZM102.411 404.464C101.933 404.464 101.507 404.387 101.131 404.234C100.764 404.08 100.479 403.875 100.274 403.619C100.077 403.363 99.9793 403.077 99.9793 402.762V402.608C99.9793 402.523 100.022 402.48 100.107 402.48H100.722C100.807 402.48 100.85 402.523 100.85 402.608V402.71C100.85 402.992 100.995 403.239 101.285 403.453C101.584 403.658 101.955 403.76 102.399 403.76C102.842 403.76 103.201 403.662 103.474 403.466C103.747 403.261 103.883 403.005 103.883 402.698C103.883 402.484 103.811 402.309 103.666 402.173C103.529 402.036 103.363 401.93 103.167 401.853C102.979 401.776 102.684 401.678 102.283 401.558C101.805 401.422 101.413 401.285 101.106 401.149C100.799 401.012 100.538 400.825 100.325 400.586C100.12 400.338 100.018 400.027 100.018 399.651C100.018 399.105 100.231 398.67 100.658 398.346C101.084 398.021 101.648 397.859 102.347 397.859C102.817 397.859 103.231 397.936 103.589 398.09C103.956 398.243 104.237 398.457 104.434 398.73C104.63 398.994 104.728 399.293 104.728 399.626V399.664C104.728 399.749 104.685 399.792 104.6 399.792H103.999C103.913 399.792 103.871 399.749 103.871 399.664V399.626C103.871 399.335 103.73 399.092 103.448 398.896C103.175 398.7 102.804 398.602 102.335 398.602C101.899 398.602 101.549 398.691 101.285 398.87C101.02 399.041 100.888 399.28 100.888 399.587C100.888 399.877 101.016 400.099 101.272 400.253C101.528 400.406 101.925 400.56 102.463 400.714C102.957 400.859 103.359 400.995 103.666 401.123C103.973 401.251 104.237 401.439 104.459 401.686C104.681 401.925 104.792 402.241 104.792 402.634C104.792 403.188 104.575 403.632 104.139 403.965C103.704 404.298 103.128 404.464 102.411 404.464ZM111.252 397.821C112.02 397.821 112.613 398.017 113.031 398.41C113.449 398.802 113.658 399.323 113.658 399.971V404.272C113.658 404.357 113.615 404.4 113.53 404.4H112.877C112.792 404.4 112.749 404.357 112.749 404.272V403.747C112.749 403.73 112.741 403.717 112.724 403.709C112.715 403.7 112.702 403.705 112.685 403.722C112.472 403.978 112.194 404.174 111.853 404.31C111.512 404.438 111.132 404.502 110.714 404.502C110.108 404.502 109.6 404.349 109.191 404.042C108.781 403.734 108.576 403.265 108.576 402.634C108.576 401.994 108.807 401.49 109.268 401.123C109.737 400.748 110.385 400.56 111.213 400.56H112.698C112.732 400.56 112.749 400.543 112.749 400.509V400.022C112.749 399.587 112.625 399.246 112.378 398.998C112.139 398.742 111.764 398.614 111.252 398.614C110.842 398.614 110.509 398.695 110.253 398.858C109.997 399.011 109.839 399.229 109.78 399.51C109.754 399.596 109.703 399.634 109.626 399.626L108.935 399.536C108.841 399.519 108.802 399.485 108.82 399.434C108.888 398.956 109.144 398.567 109.588 398.269C110.031 397.97 110.586 397.821 111.252 397.821ZM110.893 403.722C111.397 403.722 111.832 403.598 112.199 403.35C112.566 403.094 112.749 402.753 112.749 402.326V401.328C112.749 401.294 112.732 401.277 112.698 401.277H111.354C110.791 401.277 110.338 401.392 109.997 401.622C109.656 401.853 109.485 402.173 109.485 402.582C109.485 402.958 109.613 403.244 109.869 403.44C110.134 403.628 110.475 403.722 110.893 403.722ZM118.405 398.55C118.405 398.636 118.362 398.678 118.277 398.678H116.83C116.796 398.678 116.779 398.695 116.779 398.73V402.506C116.779 402.915 116.869 403.205 117.048 403.376C117.236 403.538 117.526 403.619 117.918 403.619H118.238C118.324 403.619 118.366 403.662 118.366 403.747V404.272C118.366 404.357 118.324 404.4 118.238 404.4C118.136 404.409 117.978 404.413 117.765 404.413C117.15 404.413 116.685 404.298 116.369 404.067C116.054 403.837 115.896 403.41 115.896 402.787V398.73C115.896 398.695 115.879 398.678 115.845 398.678H115.064C114.978 398.678 114.936 398.636 114.936 398.55V398.051C114.936 397.966 114.978 397.923 115.064 397.923H115.845C115.879 397.923 115.896 397.906 115.896 397.872V396.387C115.896 396.302 115.938 396.259 116.024 396.259H116.651C116.736 396.259 116.779 396.302 116.779 396.387V397.872C116.779 397.906 116.796 397.923 116.83 397.923H118.277C118.362 397.923 118.405 397.966 118.405 398.051V398.55ZM120.776 396.746C120.571 396.746 120.4 396.677 120.264 396.541C120.127 396.404 120.059 396.234 120.059 396.029C120.059 395.815 120.127 395.645 120.264 395.517C120.4 395.38 120.571 395.312 120.776 395.312C120.981 395.312 121.151 395.38 121.288 395.517C121.424 395.645 121.493 395.815 121.493 396.029C121.493 396.234 121.424 396.404 121.288 396.541C121.151 396.677 120.981 396.746 120.776 396.746ZM120.417 404.387C120.332 404.387 120.289 404.345 120.289 404.259V398.038C120.289 397.953 120.332 397.91 120.417 397.91H121.07C121.156 397.91 121.198 397.953 121.198 398.038V404.259C121.198 404.345 121.156 404.387 121.07 404.387H120.417ZM125.075 404.4C124.998 404.4 124.947 404.366 124.922 404.298L122.822 398.064L122.81 398.013C122.81 397.953 122.848 397.923 122.925 397.923H123.654C123.731 397.923 123.782 397.957 123.808 398.026L125.408 403.043C125.417 403.06 125.429 403.069 125.446 403.069C125.463 403.069 125.476 403.06 125.485 403.043L127.085 398.026C127.11 397.957 127.162 397.923 127.238 397.923L127.968 397.936C128.062 397.936 128.096 397.983 128.07 398.077L125.971 404.298C125.946 404.366 125.894 404.4 125.818 404.4H125.075ZM131.602 397.821C132.37 397.821 132.963 398.017 133.381 398.41C133.799 398.802 134.008 399.323 134.008 399.971V404.272C134.008 404.357 133.965 404.4 133.88 404.4H133.227C133.142 404.4 133.099 404.357 133.099 404.272V403.747C133.099 403.73 133.091 403.717 133.074 403.709C133.065 403.7 133.052 403.705 133.035 403.722C132.822 403.978 132.544 404.174 132.203 404.31C131.862 404.438 131.482 404.502 131.064 404.502C130.458 404.502 129.95 404.349 129.541 404.042C129.131 403.734 128.926 403.265 128.926 402.634C128.926 401.994 129.157 401.49 129.618 401.123C130.087 400.748 130.735 400.56 131.563 400.56H133.048C133.082 400.56 133.099 400.543 133.099 400.509V400.022C133.099 399.587 132.975 399.246 132.728 398.998C132.489 398.742 132.114 398.614 131.602 398.614C131.192 398.614 130.859 398.695 130.603 398.858C130.347 399.011 130.189 399.229 130.13 399.51C130.104 399.596 130.053 399.634 129.976 399.626L129.285 399.536C129.191 399.519 129.152 399.485 129.17 399.434C129.238 398.956 129.494 398.567 129.938 398.269C130.381 397.97 130.936 397.821 131.602 397.821ZM131.243 403.722C131.747 403.722 132.182 403.598 132.549 403.35C132.916 403.094 133.099 402.753 133.099 402.326V401.328C133.099 401.294 133.082 401.277 133.048 401.277H131.704C131.141 401.277 130.688 401.392 130.347 401.622C130.006 401.853 129.835 402.173 129.835 402.582C129.835 402.958 129.963 403.244 130.219 403.44C130.484 403.628 130.825 403.722 131.243 403.722ZM138.024 404.464C137.546 404.464 137.119 404.387 136.744 404.234C136.377 404.08 136.091 403.875 135.886 403.619C135.69 403.363 135.592 403.077 135.592 402.762V402.608C135.592 402.523 135.634 402.48 135.72 402.48H136.334C136.42 402.48 136.462 402.523 136.462 402.608V402.71C136.462 402.992 136.607 403.239 136.897 403.453C137.196 403.658 137.567 403.76 138.011 403.76C138.455 403.76 138.813 403.662 139.086 403.466C139.359 403.261 139.496 403.005 139.496 402.698C139.496 402.484 139.423 402.309 139.278 402.173C139.142 402.036 138.975 401.93 138.779 401.853C138.591 401.776 138.297 401.678 137.896 401.558C137.418 401.422 137.025 401.285 136.718 401.149C136.411 401.012 136.151 400.825 135.937 400.586C135.733 400.338 135.63 400.027 135.63 399.651C135.63 399.105 135.844 398.67 136.27 398.346C136.697 398.021 137.26 397.859 137.96 397.859C138.429 397.859 138.843 397.936 139.201 398.09C139.568 398.243 139.85 398.457 140.046 398.73C140.242 398.994 140.341 399.293 140.341 399.626V399.664C140.341 399.749 140.298 399.792 140.213 399.792H139.611C139.526 399.792 139.483 399.749 139.483 399.664V399.626C139.483 399.335 139.342 399.092 139.061 398.896C138.788 398.7 138.416 398.602 137.947 398.602C137.512 398.602 137.162 398.691 136.897 398.87C136.633 399.041 136.501 399.28 136.501 399.587C136.501 399.877 136.629 400.099 136.885 400.253C137.141 400.406 137.537 400.56 138.075 400.714C138.57 400.859 138.971 400.995 139.278 401.123C139.585 401.251 139.85 401.439 140.072 401.686C140.294 401.925 140.405 402.241 140.405 402.634C140.405 403.188 140.187 403.632 139.752 403.965C139.317 404.298 138.741 404.464 138.024 404.464Z" fill="#5F5F5F"/>
<path d="M188.387 361.688C180.301 361.688 174.012 355.398 174.012 347.312C174.012 339.451 180.301 332.938 188.387 332.938C196.248 332.938 202.762 339.451 202.762 347.312C202.762 355.398 196.248 361.688 188.387 361.688ZM289.012 361.688C280.926 361.688 274.637 355.398 274.637 347.312C274.637 339.451 280.926 332.938 289.012 332.938C296.873 332.938 303.387 339.451 303.387 347.312C303.387 355.398 296.873 361.688 289.012 361.688ZM296.199 368.875C304.061 368.875 310.574 375.389 310.574 383.25V390.438C310.574 394.48 307.205 397.625 303.387 397.625H288.562C286.99 387.068 280.701 378.084 271.492 373.143C274.188 370.672 277.781 368.875 281.824 368.875H296.199ZM238.699 368.875C224.773 368.875 213.543 357.645 213.543 343.719C213.543 330.018 224.773 318.562 238.699 318.562C252.4 318.562 263.855 330.018 263.855 343.719C263.855 357.645 252.4 368.875 238.699 368.875ZM255.77 376.062C270.145 376.062 281.824 387.742 281.824 402.117V408.406C281.824 414.471 276.883 419.188 271.043 419.188H206.355C200.291 419.188 195.574 414.471 195.574 408.406V402.117C195.574 387.742 207.029 376.062 221.404 376.062H223.201C227.918 378.309 233.084 379.656 238.699 379.656C244.09 379.656 249.256 378.309 253.973 376.062H255.77ZM205.682 373.143C196.473 378.084 190.184 387.068 188.611 397.625H174.012C169.969 397.625 166.824 394.48 166.824 390.438V383.25C166.824 375.389 173.113 368.875 181.199 368.875H195.574C199.393 368.875 202.986 370.672 205.682 373.143Z" fill="black" fill-opacity="0.02"/>
</g>
</g>
</g>
<defs>
<filter id="filter0_d_9_783" x="12.5" y="27.5" width="330" height="139" filterUnits="userSpaceOnUse" color-interpolation-filters="sRGB">
<feFlood flood-opacity="0" result="BackgroundImageFix"/>
<feColorMatrix in="SourceAlpha" type="matrix" values="0 0 0 0 0 0 0 0 0 0 0 0 0 0 0 0 0 0 127 0" result="hardAlpha"/>
<feOffset dy="4"/>
<feGaussianBlur stdDeviation="3.25"/>
<feComposite in2="hardAlpha" operator="out"/>
<feColorMatrix type="matrix" values="0 0 0 0 0 0 0 0 0 0 0 0 0 0 0 0 0 0 0.1 0"/>
<feBlend mode="normal" in2="BackgroundImageFix" result="effect1_dropShadow_9_783"/>
<feBlend mode="normal" in="SourceGraphic" in2="effect1_dropShadow_9_783" result="shape"/>
</filter>
<filter id="filter1_d_9_783" x="12.5" y="165.5" width="330" height="139" filterUnits="userSpaceOnUse" color-interpolation-filters="sRGB">
<feFlood flood-opacity="0" result="BackgroundImageFix"/>
<feColorMatrix in="SourceAlpha" type="matrix" values="0 0 0 0 0 0 0 0 0 0 0 0 0 0 0 0 0 0 127 0" result="hardAlpha"/>
<feOffset dy="4"/>
<feGaussianBlur stdDeviation="3.25"/>
<feComposite in2="hardAlpha" operator="out"/>
<feColorMatrix type="matrix" values="0 0 0 0 0 0 0 0 0 0 0 0 0 0 0 0 0 0 0.1 0"/>
<feBlend mode="normal" in2="BackgroundImageFix" result="effect1_dropShadow_9_783"/>
<feBlend mode="normal" in="SourceGraphic" in2="effect1_dropShadow_9_783" result="shape"/>
</filter>
<filter id="filter2_d_9_783" x="12.5" y="304.5" width="330" height="139" filterUnits="userSpaceOnUse" color-interpolation-filters="sRGB">
<feFlood flood-opacity="0" result="BackgroundImageFix"/>
<feColorMatrix in="SourceAlpha" type="matrix" values="0 0 0 0 0 0 0 0 0 0 0 0 0 0 0 0 0 0 127 0" result="hardAlpha"/>
<feOffset dy="4"/>
<feGaussianBlur stdDeviation="3.25"/>
<feComposite in2="hardAlpha" operator="out"/>
<feColorMatrix type="matrix" values="0 0 0 0 0 0 0 0 0 0 0 0 0 0 0 0 0 0 0.1 0"/>
<feBlend mode="normal" in2="BackgroundImageFix" result="effect1_dropShadow_9_783"/>
<feBlend mode="normal" in="SourceGraphic" in2="effect1_dropShadow_9_783" result="shape"/>
</filter>
<clipPath id="clip0_9_783">
<rect width="354" height="404" fill="white"/>
</clipPath>
<clipPath id="clip1_9_783">
<rect width="315" height="124" fill="white" transform="translate(20 31)"/>
</clipPath>
<clipPath id="clip2_9_783">
<rect width="315" height="124" fill="white" transform="translate(20 169)"/>
</clipPath>
<clipPath id="clip3_9_783">
<rect width="315" height="120" fill="white" transform="translate(20 310)"/>
</clipPath>
</defs>
</svg>
