<?xml version="1.0" encoding="UTF-8"?>
<svg id="Camada_1" data-name="Camada 1" xmlns="http://www.w3.org/2000/svg" viewBox="0 0 900 345"><metadata><c2pa:manifest xmlns:c2pa="http://c2pa.org/manifest">AAA0RGp1bWIAAAAeanVtZGMycGEAEQAQgAAAqgA4m3EDYzJwYQAAADQeanVtYgAAAEdqdW1kYzJtYQARABCAAACqADibcQN1cm46dXVpZDpjMTI5MWRkMy1mODJkLTQxNGQtOGJmMi05OTAwMzJjODgzNGQAAAABtGp1bWIAAAApanVtZGMyYXMAEQAQgAAAqgA4m3EDYzJwYS5hc3NlcnRpb25zAAAAANdqdW1iAAAAJmp1bWRjYm9yABEAEIAAAKoAOJtxA2MycGEuYWN0aW9ucwAAAACpY2JvcqFnYWN0aW9uc4GjZmFjdGlvbmtjMnBhLmVkaXRlZG1zb2Z0d2FyZUFnZW50bUFkb2JlIEZpcmVmbHlxZGlnaXRhbFNvdXJjZVR5cGV4U2h0dHA6Ly9jdi5pcHRjLm9yZy9uZXdzY29kZXMvZGlnaXRhbHNvdXJjZXR5cGUvY29tcG9zaXRlV2l0aFRyYWluZWRBbGdvcml0aG1pY01lZGlhAAAArGp1bWIAAAAoanVtZGNib3IAEQAQgAAAqgA4m3EDYzJwYS5oYXNoLmRhdGEAAAAAfGNib3KlamV4Y2x1c2lvbnOBomVzdGFydBjHZmxlbmd0aBlFsGRuYW1lbmp1bWJmIG1hbmlmZXN0Y2FsZ2ZzaGEyNTZkaGFzaFggayh1+X83KYeH5HpLb3PrIZ5TAbQ+SfWiMW4fVFUVXTZjcGFkSQAAAAAAAAAAAAAAAgtqdW1iAAAAJGp1bWRjMmNsABEAEIAAAKoAOJtxA2MycGEuY2xhaW0AAAAB32Nib3KoaGRjOnRpdGxlb0dlbmVyYXRlZCBJbWFnZWlkYzpmb3JtYXRtaW1hZ2Uvc3ZnK3htbGppbnN0YW5jZUlEeCx4bXA6aWlkOjVlMGRjNTljLTY0YjItNDM4Yi04YWQ4LWFjZWE2YmU3NDM3Mm9jbGFpbV9nZW5lcmF0b3J4NkFkb2JlX0lsbHVzdHJhdG9yLzI4LjIgYWRvYmVfYzJwYS8wLjcuNiBjMnBhLXJzLzAuMjUuMnRjbGFpbV9nZW5lcmF0b3JfaW5mb4G/ZG5hbWVxQWRvYmUgSWxsdXN0cmF0b3JndmVyc2lvbmQyOC4y/2lzaWduYXR1cmV4GXNlbGYjanVtYmY9YzJwYS5zaWduYXR1cmVqYXNzZXJ0aW9uc4KiY3VybHgnc2VsZiNqdW1iZj1jMnBhLmFzc2VydGlvbnMvYzJwYS5hY3Rpb25zZGhhc2hYIEppwb3/qN5BMHi+JO3M+DE6wdFklTRWcaANawazN9SvomN1cmx4KXNlbGYjanVtYmY9YzJwYS5hc3NlcnRpb25zL2MycGEuaGFzaC5kYXRhZGhhc2hYIFGnVrHcl6zsQkU50eAKL8lWYb++SryoirgdMd1/qaENY2FsZ2ZzaGEyNTYAADAQanVtYgAAAChqdW1kYzJjcwARABCAAACqADibcQNjMnBhLnNpZ25hdHVyZQAAAC/gY2JvctKEWQzCogE4JBghglkGEDCCBgwwggP0oAMCAQICEH/ydB/Rxt5DtZR6jmVwnp4wDQYJKoZIhvcNAQELBQAwdTELMAkGA1UEBhMCVVMxIzAhBgNVBAoTGkFkb2JlIFN5c3RlbXMgSW5jb3Jwb3JhdGVkMR0wGwYDVQQLExRBZG9iZSBUcnVzdCBTZXJ2aWNlczEiMCAGA1UEAxMZQWRvYmUgUHJvZHVjdCBTZXJ2aWNlcyBHMzAeFw0yNDAxMTEwMDAwMDBaFw0yNTAxMTAyMzU5NTlaMH8xETAPBgNVBAMMCGNhaS1wcm9kMRMwEQYDVQQKDApBZG9iZSBJbmMuMREwDwYDVQQHDAhTYW4gSm9zZTETMBEGA1UECAwKQ2FsaWZvcm5pYTELMAkGA1UEBhMCVVMxIDAeBgkqhkiG9w0BCQEWEWNhaS1vcHNAYWRvYmUuY29tMIIBIjANBgkqhkiG9w0BAQEFAAOCAQ8AMIIBCgKCAQEA79MAp32GPZZBw7MpK0xuxWJZ2BwXMrmpbg+bvVC487/hbE1ji4PDYa8/UU8SPRHgW7t1pu3+L6j7EGH8ZBKdMCGug1ZhDmYWwHkX24cm1kPw+Fr73JOJhGUfkGZk6SJ+x1+tYG7TBR5SVMZGAXLSKALfUwQBW8/XeSINlhtG7B9/W+v/FEl5yCJOBQenbQUU9cXhMEg7cDndWAaV1zQSZkVh1zSWWfOaH9rQU3rIP5DL06ziScWA2fe1ONesHL21aJpXnrPjV1GN/2QeMR/jbGYpbO5tWy9r9oUpx4i6KmXlCpJWx1Jk+GaY62QnbbiLFpuY9jz1yq+xylLgm2UlwQIDAQAFo4IBjDCCAYgwDAYDVR0TAQH/BAIwADAOBgNVHQ8BAf8EBAMCB4AwHgYDVR0lBBcwFQYJKoZIhvcvAQEMBggrBgEFBQcDBDCBjgYDVR0gBIGGMIGDMIGABgkqhkiG9y8BAgMwczBxBggrBgEFBQcCAjBlDGNZb3UgYXJlIG5vdCBwZXJtaXR0ZWQgdG8gdXNlIHRoaXMgTGljZW5zZSBDZXJ0aWZpY2F0ZSBleGNlcHQgYXMgcGVybWl0dGVkIGJ5IHRoZSBsaWNlbnNlIGFncmVlbWVudC4wXQYDVR0fBFYwVDBSoFCgToZMaHR0cDovL3BraS1jcmwuc3ltYXV0aC5jb20vY2FfN2E1YzNhMGM3MzExNzQwNmFkZDE5MzEyYmMxYmMyM2YvTGF0ZXN0Q1JMLmNybDA3BggrBgEFBQcBAQQrMCkwJwYIKwYBBQUHMAGGG2h0dHA6Ly9wa2ktb2NzcC5zeW1hdXRoLmNvbTAfBgNVHSMEGDAWgBRXKXoyTcz+5DVOwB8kc85zU6vfajANBgkqhkiG9w0BAQsFAAOCAgEAIWPV/Nti76MPfipUnZACP/eVrEv59WObHuWCZHj1By8bGm5UmjTgPQYlXyTj8XE/iY27phgrHg0piDsWDzu5s8B6TKkaMmUvgtk+UgukybbfdtBC6KvtGgy40cO4DkEUoPDitDxT1igbQqdKogAoVKqDEVqnF+CFQQztbGcZhFI9XKTsCQwf9hw7LhJCo6jANBIABNyQtSwWIpPeSEJhPVgWLyKepgQxJMqL6sgYZxGq9pCSQn2gS8pafyQFLByZwEBD/DxytRZZL6b3ZXqF+fZZsE9fsBxpcWFiv8pFvgBQOtCzlSbfG8o7bgBPJXm7mAA8j3t3hDEeEx0Gx8B/9a89pzTebWVrD3SEe0uZl9EbVC++F4EosRJFdYwzuP1iJO1d5I3VxGa9FrVq/FYBGORvvDaTwandizCwae43ozCI97QPEUtS+jJztz1kapHcBsLAh7LxnE82rlmq1o4vfdFsQUz7HEpOkPFkyKohyPTn1FIq4lkJKX3jBA6Na/sxyUZo9uvs4CA+0AeNcTXldyugRUF+mspdbMLiIduigdDLu+LJ3UcxvvLTE3374waDvUD1vzrXVsmJrCxk9CnI/RGmiINSZoDbUQcKPX/PXmCUmMHp0PhnXaanZwSI5Ot0Pit4AnZaU7PvrSQmew1/cp3ZmJcfeB4FGRT3DYprp+lZBqUwggahMIIEiaADAgECAhAMqLZUe4nm0gaJdc2Lm4niMA0GCSqGSIb3DQEBCwUAMGwxCzAJBgNVBAYTAlVTMSMwIQYDVQQKExpBZG9iZSBTeXN0ZW1zIEluY29ycG9yYXRlZDEdMBsGA1UECxMUQWRvYmUgVHJ1c3QgU2VydmljZXMxGTAXBgNVBAMTEEFkb2JlIFJvb3QgQ0EgRzIwHhcNMTYxMTI5MDAwMDAwWhcNNDExMTI4MjM1OTU5WjB1MQswCQYDVQQGEwJVUzEjMCEGA1UEChMaQWRvYmUgU3lzdGVtcyBJbmNvcnBvcmF0ZWQxHTAbBgNVBAsTFEFkb2JlIFRydXN0IFNlcnZpY2VzMSIwIAYDVQQDExlBZG9iZSBQcm9kdWN0IFNlcnZpY2VzIEczMIICIjANBgkqhkiG9w0BAQEFAAOCAg8AMIICCgKCAgEAtx8uvb0Js1xIbP4Mg65sAepReCWkgD6Jp7GyiGTa9ol2gfn5HfOV/HiYjZiOz+TuHFU+DXNad86xEqgVeGVMlvIHGe/EHcKBxvEDXdlTXB5zIEkfl0/SGn7J6vTX8MNybfSi95eQDUOZ9fjCaq+PBFjS5ZfeNmzi/yR+MsA0jKKoWarSRCFFFBpUFQWfAgLyXOyxOnXQOQudjxNj6Wu0X0IB13+IH11WcKcWEWXM4j4jh6hLy29Cd3EoVG3oxcVenMF/EMgD2tXjx4NUbTNB1/g9+MR6Nw5Mhp5k/g3atNExAxhtugC+T3SDShSEJfs2quiiRUHtX3RhOcK1s1OJgT5s2s9xGy5/uxVpcAIaK2KiDJXW3xxN8nXPmk1NSVu/mxtfapr4TvSJbhrU7UA3qhQY9n4On2sbH1X1Tw+7LTek8KCA5ZDghOERPiIp/Jt893qov1bE5rJkagcVg0Wqjh89NhCaBA8VyRt3ovlGyCKdNV2UL3bn5vdFsTk7qqmp9makz1/SuVXYxIf6L6+8RXOatXWaPkmucuLE1TPOeP7S1N5JToFCs80l2D2EtxoQXGCR48K/cTUR5zV/fQ+hdIOzoo0nFn77Y8Ydd2k7/x9BE78pmoeMnw6VXYfXCuWEgj6p7jpbLoxQMoWMCVzlg72WVNhJFlSw4aD8fc6ezeECAwEAAaOCATQwggEwMBIGA1UdEwEB/wQIMAYBAf8CAQAwNQYDVR0fBC4wLDAqoCigJoYkaHR0cDovL2NybC5hZG9iZS5jb20vYWRvYmVyb290ZzIuY3JsMA4GA1UdDwEB/wQEAwIBBjAUBgNVHSUEDTALBgkqhkiG9y8BAQcwVwYDVR0gBFAwTjBMBgkqhkiG9y8BAgMwPzA9BggrBgEFBQcCARYxaHR0cHM6Ly93d3cuYWRvYmUuY29tL21pc2MvcGtpL3Byb2Rfc3ZjZV9jcHMuaHRtbDAkBgNVHREEHTAbpBkwFzEVMBMGA1UEAxMMU1lNQy00MDk2LTMzMB0GA1UdDgQWBBRXKXoyTcz+5DVOwB8kc85zU6vfajAfBgNVHSMEGDAWgBSmHOFtVCRMqI9Icr9uqYzV5Owx1DANBgkqhkiG9w0BAQsFAAOCAgEAcc7lB4ym3C3cyOA7ZV4AkoGV65UgJK+faThdyXzxuNqlTQBlOyXBGFyevlm33BsGO1mDJfozuyLyT2+7IVxWFvW5yYMV+5S1NeChMXIZnCzWNXnuiIQSdmPD82TEVCkneQpFET4NDwSxo8/ykfw6Hx8fhuKz0wjhjkWMXmK3dNZXIuYVcbynHLyJOzA+vWU3sH2T0jPtFp7FN39GZne4YG0aVMlnHhtHhxaXVCiv2RVoR4w1QtvKHQpzfPObR53Cl74iLStGVFKPwCLYRSpYRF7J6vVS/XxW4LzvN2b6VEKOcvJmN3LhpxFRl3YYzW+dwnwtbuHW6WJlmjffbLm1MxLFGlG95aCz31X8wzqYNsvb9+5AXcv8Ll69tLXmO1OtsY/3wILNUEp4VLZTE3wqm3n8hMnClZiiKyZCS7L4E0mClbx+BRSMH3eVo6jgve41/fK3FQM4QCNIkpGs7FjjLy+ptC+JyyWqcfvORrFV/GOgB5hD+G5ghJcIpeigD/lHsCRYsOa5sFdqREhwIWLmSWtNwfLZdJ3dkCc7yRpm3gal6qRfTkYpxTNxxKyvKbkaJDoxR9vtWrC3iNrQd9VvxC3TXtuzoHbqumeqgcAqefWF9u6snQ4Q9FkXzeuJArNuSvPIhgBjVtggH0w0vm/lmCQYiC/Y12GeCxfgYlL33bujZnNpZ1RzdKFpdHN0VG9rZW5zgaFjdmFsWQ42MIIOMjADAgEAMIIOKQYJKoZIhvcNAQcCoIIOGjCCDhYCAQMxDzANBglghkgBZQMEAgEFADCBggYLKoZIhvcNAQkQAQSgcwRxMG8CAQEGCWCGSAGG/WwHATAxMA0GCWCGSAFlAwQCAQUABCAcA91nDhnzkhDjhr/CNJCN+yssvQseLTcVAmzCkamF8gIQXC0rwe3jZ6oRu/KB1YxADxgPMjAyNDA2MjkwNDU4MDdaAgkA4d4y7aOZ0TSgggu9MIIFBzCCAu+gAwIBAgIQBR6ekdcekQq75D1c7dDd2TANBgkqhkiG9w0BAQsFADBjMQswCQYDVQQGEwJVUzEXMBUGA1UEChMORGlnaUNlcnQsIEluYy4xOzA5BgNVBAMTMkRpZ2lDZXJ0IFRydXN0ZWQgRzQgUlNBNDA5NiBTSEEyNTYgVGltZVN0YW1waW5nIENBMB4XDTIzMDkwODAwMDAwMFoXDTM0MTIwNzIzNTk1OVowWDELMAkGA1UEBhMCVVMxFzAVBgNVBAoTDkRpZ2lDZXJ0LCBJbmMuMTAwLgYDVQQDEydEaWdpQ2VydCBBZG9iZSBBQVRMIFRpbWVzdGFtcCBSZXNwb25kZXIwWTATBgcqhkjOPQIBBggqhkjOPQMBBwNCAARNLK5R+QP/tefzBZdWrDYfEPE7mzrBFX7tKpSaxdLJo7cC9SHh2fwAeyefbtU66YaNQQzfOZX02N9KzQbH0/pso4IBizCCAYcwDgYDVR0PAQH/BAQDAgeAMAwGA1UdEwEB/wQCMAAwFgYDVR0lAQH/BAwwCgYIKwYBBQUHAwgwIAYDVR0gBBkwFzAIBgZngQwBBAIwCwYJYIZIAYb9bAcBMB8GA1UdIwQYMBaAFLoW2W1NhS9zKXaaL3WMaiCPnshvMB0GA1UdDgQWBBSwNapWwyGpi87TuLyLFiVXne804TBaBgNVHR8EUzBRME+gTaBLhklodHRwOi8vY3JsMy5kaWdpY2VydC5jb20vRGlnaUNlcnRUcnVzdGVkRzRSU0E0MDk2U0hBMjU2VGltZVN0YW1waW5nQ0EuY3JsMIGQBggrBgEFBQcBAQSBgzCBgDAkBggrBgEFBQcwAYYYaHR0cDovL29jc3AuZGlnaWNlcnQuY29tMFgGCCsGAQUFBzAChkxodHRwOi8vY2FjZXJ0cy5kaWdpY2VydC5jb20vRGlnaUNlcnRUcnVzdGVkRzRSU0E0MDk2U0hBMjU2VGltZVN0YW1waW5nQ0EuY3J0MA0GCSqGSIb3DQEBCwUAA4ICAQB4K4xCx4QQhFiUgskV+5bC9AvSyYG19a8lWMkjUcR5DEdi6guz0GUSYAzUfpCaKfD+b9gc6f4zK88OFOKWOq2L9yPB6RZSWuLgcFEyFIB1qYvF8XdSRBF/eDzjg4ux8knpF+tANOeQaMxW+xhlWsW9C63kE0V55K+oIDzVD1/RoftknDsZU3UEC4GW5HWL8aNwKenMva4mYo0cTmaojslksTFIYCsXis8KxVul23tGsDYTlF2cyMXOIsaSs1kiLaTyd9GYgUJ+PVNwA2E57IWzfWZEwNaR3/zaL9mVL73XZGfFGL8KPbwby0w755gAZ0TASml2ALN2Qr8PQpAzzlk3lCTBUQLZlMedqIWgN5w/GwielH6UNqRXznUocKW+hir9IPgYHHSBtixzydFH5q/l5qYGYKvxyIHtIY3AgA6Yw4Kts+AdC+MbQANTPDK1MdNocW+9dOJxSqjLr+cyU0Jd7IMKl1Mj/vcx0D/cv2eRcfwEFqzlwluenVez+HBQSZfMx6op5YZDkrWdZttvvR5avngtISdpZBdS7s0XSSW/+dS16DykZ6KRQ54Ol6aA+3husOGKQMffj9NCblKAbGEq3bLhYslskEBgQJ4yOvYIG0i3FvoScrbop2sWsFZSLSZEtnleWeF7MT4O3/NrkZHbTdIUx3iPdwjdzlnkXm5yuzCCBq4wggSWoAMCAQICEAc2N7ckVHzYR6z9KGYqXlswDQYJKoZIhvcNAQELBQAwYjELMAkGA1UEBhMCVVMxFTATBgNVBAoTDERpZ2lDZXJ0IEluYzEZMBcGA1UECxMQd3d3LmRpZ2ljZXJ0LmNvbTEhMB8GA1UEAxMYRGlnaUNlcnQgVHJ1c3RlZCBSb290IEc0MB4XDTIyMDMyMzAwMDAwMFoXDTM3MDMyMjIzNTk1OVowYzELMAkGA1UEBhMCVVMxFzAVBgNVBAoTDkRpZ2lDZXJ0LCBJbmMuMTswOQYDVQQDEzJEaWdpQ2VydCBUcnVzdGVkIEc0IFJTQTQwOTYgU0hBMjU2IFRpbWVTdGFtcGluZyBDQTCCAiIwDQYJKoZIhvcNAQEBBQADggIPADCCAgoCggIBAMaGNQZJs8E9cklRVcclA8TykTepl1Gh1tKD0Z5Mom2gsMyD+Vr2EaFEFUJfpIjzaPp985yJC3+dH54PMx9QEwsmc5Zt+FeoAn39Q7SE2hHxc7Gz7iuAhIoiGN/r2j3EF3+rGSs+QtxnjupRPfDWVtTnKC3r07G1decfBmWNlCnT2exp39mQh0YAe9tEQYncfGpXevA3eZ9drMvohGS0UvJ2R/dhgxndX7RUCyFobjchu0CsX7LeSn3O9TkSZ+8OpWNs5KbFHc02DVzV5huowWR0QKfAcsW6Th+xtVhNef7Xj3OTrCw54qVI1vCwMROpVymWJy71h6aPTnYVVSZwmCZ/oBpHIEPjQ2OAe3VuJyWQmDo4EbP29p7mO1vsgd4iFNmCKseSv6De4z6ic/rnH1pslPJSlRErWHRAKKtzQ87fSqEcazjFKfPKqpZzQmiftkaznTqj1QPgv/CiPMpC3BhIfxQ0z9JMq++bPf4OuGQq+nUoJEHtQr8FnGZJUlD0UfM2SU2LINIsVzV5K6jzRWC8I41Y99xh3pP+OcD5sjClTNfpmEpYPtMDiP6zj9NeS3YSUZPJjAw7W4oiqMEmCPkUEBIDfV8ju2TjY+Cm4T72wnSyPx4JduyrXUZ14mCjWAkBKAAOhFTuzuldyF4wEr1GnrXTdrnSDmuZDNIztM2xAgMBAAGjggFdMIIBWTASBgNVHRMBAf8ECDAGAQH/AgEAMB0GA1UdDgQWBBS6FtltTYUvcyl2mi91jGogj57IbzAfBgNVHSMEGDAWgBTs1+OC0nFdZEzfLmc/57qYrhwPTzAOBgNVHQ8BAf8EBAMCAYYwEwYDVR0lBAwwCgYIKwYBBQUHAwgwdwYIKwYBBQUHAQEEazBpMCQGCCsGAQUFBzABhhhodHRwOi8vb2NzcC5kaWdpY2VydC5jb20wQQYIKwYBBQUHMAKGNWh0dHA6Ly9jYWNlcnRzLmRpZ2ljZXJ0LmNvbS9EaWdpQ2VydFRydXN0ZWRSb290RzQuY3J0MEMGA1UdHwQ8MDowOKA2oDSGMmh0dHA6Ly9jcmwzLmRpZ2ljZXJ0LmNvbS9EaWdpQ2VydFRydXN0ZWRSb290RzQuY3JsMCAGA1UdIAQZMBcwCAYGZ4EMAQQCMAsGCWCGSAGG/WwHATANBgkqhkiG9w0BAQsFAAOCAgEAfVmOwJO2b5ipRCIBfmbW2CFC4bAYLhBNE88wU86/GPvHUF3iSyn7cIoNqilp/GnBzx0H6T5gyNgL5Vxb122H+oQgJTQxZ822EpZvxFBMYh0MCIKoFr2pVs8Vc40BIiXOlWk/R3f7cnQU1/+rT4osequFzUNf7WC2qk+RZp4snuCKrOX9jLxkJodskr2dfNBwCnzvqLx1T7pa96kQsl3p/yhUifDVinF2ZdrM8HKjI/rAJ4JErpknG6skHibBt94q6/aesXmZgaNWhqsKRcnfxI2g55j7+6adcq/Ex8HBanHZxhOACcS2n82HhyS7T6NJuXdmkfFynOlLAlKnN36TU6w7HQhJD5TNOXrd/yVjmScsPT9rp/Fmw0HNT7ZAmyEhQNC3EyTN3B14OuSereU0cZLXJmvkOHOrpgFPvT87eK1MrfvElXvtCl8zOYdBeHo46Zzh3SP9HSjTx/no8Zhf+yvYfvJGnXUsHicsJttvFXseGYs2uJPU5vIXmVnKcPA3v5gA3yAWTyf7YGcWoWa63VXAOimGsJigK+2VQbc61RWYMbRiCQ8KvYHZE/6/pNHzV9m8BPqC3jLfBInwAM1dwvnQI38AC+R2AibZ8GV2QqYphwlHK+Z/GqSFD/yYlvZVVCsfgPrA8g4r5db7qS9EFUrnEw4d2zc4GqEr9u3WfPwxggG4MIIBtAIBATB3MGMxCzAJBgNVBAYTAlVTMRcwFQYDVQQKEw5EaWdpQ2VydCwgSW5jLjE7MDkGA1UEAxMyRGlnaUNlcnQgVHJ1c3RlZCBHNCBSU0E0MDk2IFNIQTI1NiBUaW1lU3RhbXBpbmcgQ0ECEAUenpHXHpEKu+Q9XO3Q3dkwDQYJYIZIAWUDBAIBBQCggdEwGgYJKoZIhvcNAQkDMQ0GCyqGSIb3DQEJEAEEMBwGCSqGSIb3DQEJBTEPFw0yNDA2MjkwNDU4MDdaMCsGCyqGSIb3DQEJEAIMMRwwGjAYMBYEFNkauTP+F63pgh6mE/WkOnFOPn59MC8GCSqGSIb3DQEJBDEiBCBNeThc3R/3leukCMY7Cdm/nz+UyqOhEzUQGJpr7wBkBTA3BgsqhkiG9w0BCRACLzEoMCYwJDAiBCCC2vGUlXs2hAJFj9UnAGn+YscUVvqeC4ar+CfoUyAn2TAKBggqhkjOPQQDAgRHMEUCIEYgRXsRbz3dNzdMfr9KgLxCCfyu9cccSZs9Uf+J95S8AiEAocI1ifOqtsEIYZMflDiMTBsuQ1zuvG3MGqA53dufinxlclZhbHOhaG9jc3BWYWxzgVkI2DCCCNQKAQCgggjNMIIIyQYJKwYBBQUHMAEBBIIIujCCCLYwgZ6iFgQUDmMk/uzR5J4epRtTSzkan+LIItMYDzIwMjQwNjI2MTgyNzA4WjBzMHEwSTAJBgUrDgMCGgUABBS733Mle9sjosdOiV3f/BGFqJuLAQQUVyl6Mk3M/uQ1TsAfJHPOc1Or32oCEH/ydB/Rxt5DtZR6jmVwnp6AABgPMjAyNDA2MjYxODI3MDhaoBEYDzIwMjQwNzAzMTgyNzA4WjANBgkqhkiG9w0BAQsFAAOCAgEAN66IcMb3Fb7poLm/MoHsRptkymkPxqdlKdfofzWzBBYrRsgUky4/qpPexLXT89/JYSVnVKHw/2zpaR+p0aosIks0MP+cI32mk7jrJsUylNqpqJLvC3FmrCr0IRqNez56VUXwVr7YgzVMF+wHh7ucaxSWsDfzUp5uxqRUX+OfOFRgj7J7JUTiyBLfHqv0zfo7ZgLLyfz83zi6sKNQfy1gmjd4XfzisyZA3Ex5hkP+gSXvUxqlRGxhVrHBlpuhgrB6IYdvi23KVRksGBNc/8CZYrbYQSKwNpyQ3GrtdP+PN5tPD319yfoY/tFtAfXJOd/zGL6w/Uj4UgwO2dHjDuGbsPV0TCWqbngp0PHCOvP45h2VnavULio3EDD++A72dD6G891omlUxuH9nKjFojLaJUSrgDpeH04AR083y4xSbQFWDSUV2XN7SJ3sXxgoE03nB/MfjTDzKz2eYNLjQsNODnwzRiUWvOU7RnfiUtq74QrjFa1KCEcZ0IGvbW2BAspcOxQbdUkdFA2nX+vsLz/O2AzvVqPKmvT1UY0IeEGcdO1KeP1Py8eKcqQcHy+5NgjgNgegun7/FWfB2175HjtFTpWEN6m7F78pBXF8LSm1GC6l8DGrGDX0rskkOsvoaH4Vk3U80y1DXKsMbIGTo0OadEHz1ZhI0rygQNath0TTreQWgggX9MIIF+TCCBfUwggPdoAMCAQICFGQ5S5wwfe9fxTRKkPcigi/uJEy1MA0GCSqGSIb3DQEBCwUAMHUxCzAJBgNVBAYTAlVTMSMwIQYDVQQKExpBZG9iZSBTeXN0ZW1zIEluY29ycG9yYXRlZDEdMBsGA1UECxMUQWRvYmUgVHJ1c3QgU2VydmljZXMxIjAgBgNVBAMTGUFkb2JlIFByb2R1Y3QgU2VydmljZXMgRzMwHhcNMjQwNjA0MTg1NzU3WhcNMjQwOTAyMTg1NzU3WjB6MQswCQYDVQQGEwJVUzEjMCEGA1UEChMaQWRvYmUgU3lzdGVtcyBJbmNvcnBvcmF0ZWQxRjBEBgNVBAMTPUFkb2JlIFByb2R1Y3QgU2VydmljZXMgRzMgT0NTUCBSZXNwb25kZXIgMjAyNC0wNi0wNFQxODo1Nzo1N1owggIiMA0GCSqGSIb3DQEBAQUAA4ICDwAwggIKAoICAQC6Dq+Muf/NyKaJ5wauFHygUr0qHxGAssL3UbBV/fPgCSfM83RU45S9/tXT9FHxIfFkkGS6GUo4CG+YLlbDpvmWwKX3va050QX80ENHLfRVEm7h9PbDcmvJ2Wk+xvJnfoxMzo7LG5j0mdlzcRZmqmnE5scDC5SvynTd+g0w2MKz2IWCMx74bihq5TSSjKtuF/dYpxt/pxrg+uQ3PVTCnCEdoVcIC6/XLZc/Np/kM5VBOn112bRgISRskTrBmWuy8I+USBvpalr3OHticozTbhWgUYQjGgIBg1q2hNRllT6MPaSfX8DHbB2G9oXegDduKyzUz6GvEeavIexEh/vFT0ZGueyKbKvkgw8sxgdPPVfgVL/4pEV2wx8ArIf8mtniqUzKjtQfU6qXkP69ASN/aaFjyXaoZI02J6pS1EhqFDQ53x8Jc+PyEYQco5aWeJeVjmxELpybzENcGV+d2lO8Z2ok1MLNqJxzYaL8V7HrZl/7fim5qFAlZgwvLmNFIuoJcGsLJc+FROWhLqsR5PGsSFV2PxHgfiqXtNUJLym2FAq4H+UQJRAzQXrdCqtuUWNkwiIZyOdcyU195d/xfHFvpf8nzmLUlqN0b5wR1rLu4xRrGDv55o8CFi/oHXuADBQtJ4P1zpQVuVSG6hE2hGVVE2IgWNl8Tvq94DZIw5ADxbvx+QIDAQABo3gwdjAdBgNVHQ4EFgQUDmMk/uzR5J4epRtTSzkan+LIItMwHwYDVR0jBBgwFoAUVyl6Mk3M/uQ1TsAfJHPOc1Or32owDgYDVR0PAQH/BAQDAgeAMBMGA1UdJQQMMAoGCCsGAQUFBwMJMA8GCSsGAQUFBzABBQQCBQAwDQYJKoZIhvcNAQELBQADggIBABYXRbS+OvNPhItXVToHgDAEit4Xp/du4HAKgnjwkJektwdF1C7arVWpbaTf/TwRYatAWcLouiIcS0C02yjfVXaVK5UO4wknA6j1LKkPbABWGOEiKbzP0+j77dH0ZlyepRGrDzro4dns4m53v5ISh0w3IkdrI8jKbmWGJwSm9gHX5b5X5kMBz5s/rnN432GPEOXqe/wdV4j4nh6kz+RiVxsP+oOO8vz8ra44xpiYp5NmbDMpDWgX6LVJUnYOf7Wd3K5928k5KKM7Ya4tE87Uq4F5B4KvVHq9zgbg/m+TM94fgpN/NT9HNBU+Iyxzw/QVekyG6qpxS3yy8qdqtiDyKbkcBejyfbpuEyFNad3O0V4q/avssd4EdQTqMIpIY5S+srsHPoFOBC7oR9YBFh0yaMWisaXfP36QY6vOlzCPulc+aiPREM8qhIMV/U7dv/xhPT/ZA8Rh7k4De3IrGbiMAvbUKnSUGKsUaWtdoI/aZrJovNKUheIXo6S4ADSKaR3vrZHJ30uCkEziN8QE6qYzQ4OFw7INc3lixNdLsMtkr4MEkx331uRjmUXvsYYnE/giAkBIkXQpUHqK6e9ykDAV9QQMLiJnO/L0ckayCf1/NQbNbG80oDOiZ+ImQmgV9SYkDii0Nnn+rV/IOTy6jbmE9cV1rdxm/kOe/TiBaMKBe518Y3BhZFkKyAAAAAAAAAAAAAAAAAAAAAAAAAAAAAAAAAAAAAAAAAAAAAAAAAAAAAAAAAAAAAAAAAAAAAAAAAAAAAAAAAAAAAAAAAAAAAAAAAAAAAAAAAAAAAAAAAAAAAAAAAAAAAAAAAAAAAAAAAAAAAAAAAAAAAAAAAAAAAAAAAAAAAAAAAAAAAAAAAAAAAAAAAAAAAAAAAAAAAAAAAAAAAAAAAAAAAAAAAAAAAAAAAAAAAAAAAAAAAAAAAAAAAAAAAAAAAAAAAAAAAAAAAAAAAAAAAAAAAAAAAAAAAAAAAAAAAAAAAAAAAAAAAAAAAAAAAAAAAAAAAAAAAAAAAAAAAAAAAAAAAAAAAAAAAAAAAAAAAAAAAAAAAAAAAAAAAAAAAAAAAAAAAAAAAAAAAAAAAAAAAAAAAAAAAAAAAAAAAAAAAAAAAAAAAAAAAAAAAAAAAAAAAAAAAAAAAAAAAAAAAAAAAAAAAAAAAAAAAAAAAAAAAAAAAAAAAAAAAAAAAAAAAAAAAAAAAAAAAAAAAAAAAAAAAAAAAAAAAAAAAAAAAAAAAAAAAAAAAAAAAAAAAAAAAAAAAAAAAAAAAAAAAAAAAAAAAAAAAAAAAAAAAAAAAAAAAAAAAAAAAAAAAAAAAAAAAAAAAAAAAAAAAAAAAAAAAAAAAAAAAAAAAAAAAAAAAAAAAAAAAAAAAAAAAAAAAAAAAAAAAAAAAAAAAAAAAAAAAAAAAAAAAAAAAAAAAAAAAAAAAAAAAAAAAAAAAAAAAAAAAAAAAAAAAAAAAAAAAAAAAAAAAAAAAAAAAAAAAAAAAAAAAAAAAAAAAAAAAAAAAAAAAAAAAAAAAAAAAAAAAAAAAAAAAAAAAAAAAAAAAAAAAAAAAAAAAAAAAAAAAAAAAAAAAAAAAAAAAAAAAAAAAAAAAAAAAAAAAAAAAAAAAAAAAAAAAAAAAAAAAAAAAAAAAAAAAAAAAAAAAAAAAAAAAAAAAAAAAAAAAAAAAAAAAAAAAAAAAAAAAAAAAAAAAAAAAAAAAAAAAAAAAAAAAAAAAAAAAAAAAAAAAAAAAAAAAAAAAAAAAAAAAAAAAAAAAAAAAAAAAAAAAAAAAAAAAAAAAAAAAAAAAAAAAAAAAAAAAAAAAAAAAAAAAAAAAAAAAAAAAAAAAAAAAAAAAAAAAAAAAAAAAAAAAAAAAAAAAAAAAAAAAAAAAAAAAAAAAAAAAAAAAAAAAAAAAAAAAAAAAAAAAAAAAAAAAAAAAAAAAAAAAAAAAAAAAAAAAAAAAAAAAAAAAAAAAAAAAAAAAAAAAAAAAAAAAAAAAAAAAAAAAAAAAAAAAAAAAAAAAAAAAAAAAAAAAAAAAAAAAAAAAAAAAAAAAAAAAAAAAAAAAAAAAAAAAAAAAAAAAAAAAAAAAAAAAAAAAAAAAAAAAAAAAAAAAAAAAAAAAAAAAAAAAAAAAAAAAAAAAAAAAAAAAAAAAAAAAAAAAAAAAAAAAAAAAAAAAAAAAAAAAAAAAAAAAAAAAAAAAAAAAAAAAAAAAAAAAAAAAAAAAAAAAAAAAAAAAAAAAAAAAAAAAAAAAAAAAAAAAAAAAAAAAAAAAAAAAAAAAAAAAAAAAAAAAAAAAAAAAAAAAAAAAAAAAAAAAAAAAAAAAAAAAAAAAAAAAAAAAAAAAAAAAAAAAAAAAAAAAAAAAAAAAAAAAAAAAAAAAAAAAAAAAAAAAAAAAAAAAAAAAAAAAAAAAAAAAAAAAAAAAAAAAAAAAAAAAAAAAAAAAAAAAAAAAAAAAAAAAAAAAAAAAAAAAAAAAAAAAAAAAAAAAAAAAAAAAAAAAAAAAAAAAAAAAAAAAAAAAAAAAAAAAAAAAAAAAAAAAAAAAAAAAAAAAAAAAAAAAAAAAAAAAAAAAAAAAAAAAAAAAAAAAAAAAAAAAAAAAAAAAAAAAAAAAAAAAAAAAAAAAAAAAAAAAAAAAAAAAAAAAAAAAAAAAAAAAAAAAAAAAAAAAAAAAAAAAAAAAAAAAAAAAAAAAAAAAAAAAAAAAAAAAAAAAAAAAAAAAAAAAAAAAAAAAAAAAAAAAAAAAAAAAAAAAAAAAAAAAAAAAAAAAAAAAAAAAAAAAAAAAAAAAAAAAAAAAAAAAAAAAAAAAAAAAAAAAAAAAAAAAAAAAAAAAAAAAAAAAAAAAAAAAAAAAAAAAAAAAAAAAAAAAAAAAAAAAAAAAAAAAAAAAAAAAAAAAAAAAAAAAAAAAAAAAAAAAAAAAAAAAAAAAAAAAAAAAAAAAAAAAAAAAAAAAAAAAAAAAAAAAAAAAAAAAAAAAAAAAAAAAAAAAAAAAAAAAAAAAAAAAAAAAAAAAAAAAAAAAAAAAAAAAAAAAAAAAAAAAAAAAAAAAAAAAAAAAAAAAAAAAAAAAAAAAAAAAAAAAAAAAAAAAAAAAAAAAAAAAAAAAAAAAAAAAAAAAAAAAAAAAAAAAAAAAAAAAAAAAAAAAAAAAAAAAAAAAAAAAAAAAAAAAAAAAAAAAAAAAAAAAAAAAAAAAAAAAAAAAAAAAAAAAAAAAAAAAAAAAAAAAAAAAAAAAAAAAAAAAAAAAAAAAAAAAAAAAAAAAAAAAAAAAAAAAAAAAAAAAAAAAAAAAAAAAAAAAAAAAAAAAAAAAAAAAAAAAAAAAAAAAAAAAAAAAAAAAAAAAAAAAAAAAAAAAAAAAAAAAAAAAAAAAAAAAAAAAAAAAAAAAAAAAAAAAAAAAAAAAAAAAAAAAAAAAAAAAAAAAAAAAAAAAAAAAAAAAAAAAAAAAAAAAAAAAAAAAAAAAAAAAAAAAAAAAAAAAAAAAAAAAAAAAAAAAAAAAAAAAAAAAAAAAAAAAAAAAAAAAAAAAAAAAAAAAAAAAAAAAAAAAAAAAAAAAAAAAAAAAAAAAAAAAAAAAAAAAAAAAAAAAAAAAAAAAAAAAAAAAAAAAAAAAAAAAAAAAAAAAAAAAAAAAAAAAAAAAAAAAAAAAAAAAAAAAAAAAAAAAAAAAAAAAAAAAAAAAAAAAAAAAAAAAAAAAAAAAAAAAAAAAAAAAAAAAAAAAAAAAAAAAAAAAAAAAAAAAAAAAAAAAAAAAAAAAAAAAAAAAAAAAAAAAAAAAAAAAAAAAAAAAAAAAAAAAAAAAAAAAAAAAAAAAAAAAAAAAAAAAAAAAAAAAAAAAAAAAAAAAAAAAAAAAAAAAAAAAAAAAAAAAAAAAAAAAAAAAAAAAAAAAAAAAAAAAAAAAAAAAAAAAAAAAAAAAAAAAAAAAAAAAAAAAAAAAAAAAAAAAAAAAAAAAAAAAAAAAAAAAAAAAAAAAAAAAAAAAAAAAAAAAAAAAAAAAAAAAAAAAAAAAAAAAAAAAAAAAAAAAAAAAAAAAAAAAAAAAAAAAAAAAAAAAAAAAAAAAAAAAAAAAAAAAAAAAAAAAAAAAAAAAAAAAAAAAAAAAAAAAAAAAAAAAAAAAAAAAAAAAAAAAAAAAAAAAAAAAAAAAAAAAAAAAAAAAAAAAAAAAAAAAAAAAAAAAAAAAAAAAAAAAAAAAAAAAAAAAAAAAAAAAAAAAAAAAAAAAAAAAAAAAAAAAAAAAAAAAAAAAAAAAAAAAAAAAAAAAAAAAAAAAAAAAAAAAAAAAAAAAAAAAAAAAAAAAAAAAAAAAAAAAAAAAAAAAAAAAAAAAAAAAAAAAAAAAAAAAAAAAAAAAAAAAAAAAAAAAAAAAAAAAAAAAAAAAAAAAAAAPZZAQAofGlRXmE+lJ96cObr7itALCWzUX+t8Eg3NtC5t5ftcCys6ZP0BURPcdWWEyXb8kCj/kdJsC1keLq1yPRc3v75tt845oQ2IAiK77zry4Si1HPYqQc1cC7oBghgk1cl1aD89lSzKTcbBYlN92kS81YNwQf6nlRaxvcWRWXyfwu4p/YR4tdQExbL4onf3vmAW6s/nJ/8t865bBKEBjHl51PK/4R96TgzbHmJ7dyHuytisu50vjvV7Aq/CAVDCBZWn04Q65oCU9HrlNUUwckg6Dl7nCjDCxISnv8sYM98cflzx8tMreVNjKn7p2hRoziltF26eVB+gfcfnU1pzcoWWvTA</c2pa:manifest></metadata>
  <defs>
    <style>
      .cls-1 {
        fill: #fff;
        stroke-width: 0px;
      }
    </style>
  </defs>
  <path class="cls-1" d="M566.41,123.3c-5.24-5.4-11.13-9.87-16.96-14.24-4.28-3.21-8.91-2.87-13.27.34-2.33,1.72-17.48,16.63-22.03,21.13-.61.61-1.58.59-2.16-.04-4.03-4.34-16.84-18.09-22.94-21.78-3.57-2.16-7.28-2.72-10.73-.39-5.09,3.45-10.3,6.88-14.83,11.34-18.13,17.87-49.93,50.24-49.93,62.88,0,26.83,50.15,75.72,100.53,75.72s98.42-48.64,98.42-75.99c0-11.78-31.2-43.65-46.11-58.98ZM514.5,210.81c-57.03,0-69.66-11.9-69.66-21.36s12.62-21.36,69.66-21.36,66.51,12.13,66.51,21.36-9.48,21.36-66.51,21.36Z"/>
  <path class="cls-1" d="M53.01,113.41c0-3.64,2.95-6.6,6.59-6.6h46.61c37.37,0,77.7,15.34,77.7,68.3,0,60.13-52.46,83.15-97.5,83.15-35.39,0-56.42-14.35-56.42-41.08,0-16.83,8.41-30.19,22.02-32.42.74-.25.99-.25.99-.99v-69.31c0-.23,0-.6,0-1.06ZM93.85,209.51c-17.32-27.47-56.67-24.99-56.67,5.94,0,17.32,12.62,36.13,41.57,36.13,30.69,0,57.41-20.79,57.41-76.71,0-40.83-14.35-61.87-34.4-61.87h0c-1.23,0-2.23,1-2.23,2.23v93.05c0,2.82-4,3.91-5.69,1.24Z"/>
  <path class="cls-1" d="M264.18,106.81c38.1,0,70.63,25.24,70.63,77.67s-32.52,73.78-70.63,73.78-70.39-21.36-70.39-73.78,32.28-77.67,70.39-77.67ZM264.67,250.74c9.22,0,21.36-9.47,21.36-66.5s-12.14-69.66-21.36-69.66-21.36,12.62-21.36,69.66,11.89,66.5,21.36,66.5Z"/>
  <g>
    <path class="cls-1" d="M375.28,92.14c17.15,0,27.63-13.34,27.63-27.63s-10.48-27.95-27.63-27.95-27.95,13.34-27.95,27.95,10.48,27.63,27.95,27.63Z"/>
    <path class="cls-1" d="M405.1,110.4c0-3.97-3.22-7.18-7.19-7.18h-45.01c-3.97,0-7.18,3.21-7.19,7.18-.03,30.16.01,98.9.02,123.49,0,2.9,1.75,5.53,4.44,6.63,17.95,7.34,24.78,19.91,24.78,31.4,0,13.34-9.21,27.63-24.77,27.63-6.35,0-7.62-2.22-7.62-3.81,0-5.4,11.43-6.03,11.43-20.01s-10.8-20.96-22.87-20.96c-13.66,0-24.14,9.21-24.14,22.23,0,18.1,20.96,31.44,43.51,31.44,26.36,0,54.94-17.78,54.94-65.1,0,0-.29-98.29-.34-132.94Z"/>
  </g>
  <path class="cls-1" d="M739.52,132.55c0,21.53-29.7,33.66-40.34,33.91v2.39c12.13,0,49.49,8.73,49.49,46.1,0,27.96-20.79,43.31-56.17,43.31h-63.9c-3.39,0-6.15-2.73-6.17-6.12-.16-24.32-.73-113.95-.87-138.9-.02-3.55,2.17-6.43,6.39-6.43,16.77,0,60.6,0,60.6,0,8.91,0,50.98.25,50.98,25.74ZM669,171.65c0,.31.15.6.4.79l.1.08c.3.23.71.27,1.05.1,15.46-7.76,22.95-23.16,22.95-37.59,0-12.37-5.69-22.02-16.09-22.02h-3.74c-2.58,0-4.68,2.09-4.68,4.68v53.97ZM669,186.5v43.31c0,17.57,7.92,21.03,13.86,21.03,10.15,0,16.33-10.64,16.33-39.59,0-23.26-3.96-36.62-14.35-36.62-5.2,0-13.12,3.71-15.84,11.88Z"/>
  <path class="cls-1" d="M756.91,206.79v-93.33h0c0-3.67,2.98-6.64,6.65-6.64h100.99c.49.49.76.76,1.25,1.25v44.52c0,.69-.56,1.25-1.25,1.25h-2.96c-.74,0-.99-.5-1.24-1.24-6.68-20.04-15.84-39.59-40.09-39.59h-5.4c-4.94,0-8.95,4.01-8.95,8.95v45l.74.25c4.95-5.2,11.38-7.42,18.56-7.42,5.03,0,10.44.73,15.12,3.23,17.14,9.14,5.56,34-11.25,26.38-12.09-5.48-6.84-16-12.04-16s-10.15,4.95-10.15,14.6v17.82c0,28.95,11.88,43.8,24.75,43.8,16.33,0,26.23-24.5,33.41-42.07.25-.5.54-1.24,1.24-1.24,2.17,0,3.71,1.5,3.71,3.71v41.08c0,2.32-1.83,3.95-4.21,4.21h0c-.73.04-23.01,2.97-49.25,2.97-53.7,0-59.64-36.63-59.64-51.47Z"/>
</svg>